G75*
%MOIN*%
%OFA0B0*%
%FSLAX25Y25*%
%IPPOS*%
%LPD*%
%AMOC8*
5,1,8,0,0,1.08239X$1,22.5*
%
%ADD10C,0.00000*%
%ADD11C,0.12998*%
%ADD12C,0.03162*%
%ADD13C,0.07400*%
%ADD14C,0.07000*%
%ADD15C,0.13400*%
%ADD16C,0.05156*%
%ADD17C,0.07800*%
%ADD18C,0.05600*%
%ADD19C,0.17400*%
%ADD20C,0.09770*%
%ADD21C,0.05600*%
%ADD22OC8,0.05600*%
D10*
X0243500Y0183500D02*
X0243500Y0378461D01*
X0440350Y0378461D01*
X0440350Y0183500D01*
X0243500Y0183500D01*
X0247201Y0193500D02*
X0247203Y0193658D01*
X0247209Y0193816D01*
X0247219Y0193974D01*
X0247233Y0194132D01*
X0247251Y0194289D01*
X0247272Y0194446D01*
X0247298Y0194602D01*
X0247328Y0194758D01*
X0247361Y0194913D01*
X0247399Y0195066D01*
X0247440Y0195219D01*
X0247485Y0195371D01*
X0247534Y0195522D01*
X0247587Y0195671D01*
X0247643Y0195819D01*
X0247703Y0195965D01*
X0247767Y0196110D01*
X0247835Y0196253D01*
X0247906Y0196395D01*
X0247980Y0196535D01*
X0248058Y0196672D01*
X0248140Y0196808D01*
X0248224Y0196942D01*
X0248313Y0197073D01*
X0248404Y0197202D01*
X0248499Y0197329D01*
X0248596Y0197454D01*
X0248697Y0197576D01*
X0248801Y0197695D01*
X0248908Y0197812D01*
X0249018Y0197926D01*
X0249131Y0198037D01*
X0249246Y0198146D01*
X0249364Y0198251D01*
X0249485Y0198353D01*
X0249608Y0198453D01*
X0249734Y0198549D01*
X0249862Y0198642D01*
X0249992Y0198732D01*
X0250125Y0198818D01*
X0250260Y0198902D01*
X0250396Y0198981D01*
X0250535Y0199058D01*
X0250676Y0199130D01*
X0250818Y0199200D01*
X0250962Y0199265D01*
X0251108Y0199327D01*
X0251255Y0199385D01*
X0251404Y0199440D01*
X0251554Y0199491D01*
X0251705Y0199538D01*
X0251857Y0199581D01*
X0252010Y0199620D01*
X0252165Y0199656D01*
X0252320Y0199687D01*
X0252476Y0199715D01*
X0252632Y0199739D01*
X0252789Y0199759D01*
X0252947Y0199775D01*
X0253104Y0199787D01*
X0253263Y0199795D01*
X0253421Y0199799D01*
X0253579Y0199799D01*
X0253737Y0199795D01*
X0253896Y0199787D01*
X0254053Y0199775D01*
X0254211Y0199759D01*
X0254368Y0199739D01*
X0254524Y0199715D01*
X0254680Y0199687D01*
X0254835Y0199656D01*
X0254990Y0199620D01*
X0255143Y0199581D01*
X0255295Y0199538D01*
X0255446Y0199491D01*
X0255596Y0199440D01*
X0255745Y0199385D01*
X0255892Y0199327D01*
X0256038Y0199265D01*
X0256182Y0199200D01*
X0256324Y0199130D01*
X0256465Y0199058D01*
X0256604Y0198981D01*
X0256740Y0198902D01*
X0256875Y0198818D01*
X0257008Y0198732D01*
X0257138Y0198642D01*
X0257266Y0198549D01*
X0257392Y0198453D01*
X0257515Y0198353D01*
X0257636Y0198251D01*
X0257754Y0198146D01*
X0257869Y0198037D01*
X0257982Y0197926D01*
X0258092Y0197812D01*
X0258199Y0197695D01*
X0258303Y0197576D01*
X0258404Y0197454D01*
X0258501Y0197329D01*
X0258596Y0197202D01*
X0258687Y0197073D01*
X0258776Y0196942D01*
X0258860Y0196808D01*
X0258942Y0196672D01*
X0259020Y0196535D01*
X0259094Y0196395D01*
X0259165Y0196253D01*
X0259233Y0196110D01*
X0259297Y0195965D01*
X0259357Y0195819D01*
X0259413Y0195671D01*
X0259466Y0195522D01*
X0259515Y0195371D01*
X0259560Y0195219D01*
X0259601Y0195066D01*
X0259639Y0194913D01*
X0259672Y0194758D01*
X0259702Y0194602D01*
X0259728Y0194446D01*
X0259749Y0194289D01*
X0259767Y0194132D01*
X0259781Y0193974D01*
X0259791Y0193816D01*
X0259797Y0193658D01*
X0259799Y0193500D01*
X0259797Y0193342D01*
X0259791Y0193184D01*
X0259781Y0193026D01*
X0259767Y0192868D01*
X0259749Y0192711D01*
X0259728Y0192554D01*
X0259702Y0192398D01*
X0259672Y0192242D01*
X0259639Y0192087D01*
X0259601Y0191934D01*
X0259560Y0191781D01*
X0259515Y0191629D01*
X0259466Y0191478D01*
X0259413Y0191329D01*
X0259357Y0191181D01*
X0259297Y0191035D01*
X0259233Y0190890D01*
X0259165Y0190747D01*
X0259094Y0190605D01*
X0259020Y0190465D01*
X0258942Y0190328D01*
X0258860Y0190192D01*
X0258776Y0190058D01*
X0258687Y0189927D01*
X0258596Y0189798D01*
X0258501Y0189671D01*
X0258404Y0189546D01*
X0258303Y0189424D01*
X0258199Y0189305D01*
X0258092Y0189188D01*
X0257982Y0189074D01*
X0257869Y0188963D01*
X0257754Y0188854D01*
X0257636Y0188749D01*
X0257515Y0188647D01*
X0257392Y0188547D01*
X0257266Y0188451D01*
X0257138Y0188358D01*
X0257008Y0188268D01*
X0256875Y0188182D01*
X0256740Y0188098D01*
X0256604Y0188019D01*
X0256465Y0187942D01*
X0256324Y0187870D01*
X0256182Y0187800D01*
X0256038Y0187735D01*
X0255892Y0187673D01*
X0255745Y0187615D01*
X0255596Y0187560D01*
X0255446Y0187509D01*
X0255295Y0187462D01*
X0255143Y0187419D01*
X0254990Y0187380D01*
X0254835Y0187344D01*
X0254680Y0187313D01*
X0254524Y0187285D01*
X0254368Y0187261D01*
X0254211Y0187241D01*
X0254053Y0187225D01*
X0253896Y0187213D01*
X0253737Y0187205D01*
X0253579Y0187201D01*
X0253421Y0187201D01*
X0253263Y0187205D01*
X0253104Y0187213D01*
X0252947Y0187225D01*
X0252789Y0187241D01*
X0252632Y0187261D01*
X0252476Y0187285D01*
X0252320Y0187313D01*
X0252165Y0187344D01*
X0252010Y0187380D01*
X0251857Y0187419D01*
X0251705Y0187462D01*
X0251554Y0187509D01*
X0251404Y0187560D01*
X0251255Y0187615D01*
X0251108Y0187673D01*
X0250962Y0187735D01*
X0250818Y0187800D01*
X0250676Y0187870D01*
X0250535Y0187942D01*
X0250396Y0188019D01*
X0250260Y0188098D01*
X0250125Y0188182D01*
X0249992Y0188268D01*
X0249862Y0188358D01*
X0249734Y0188451D01*
X0249608Y0188547D01*
X0249485Y0188647D01*
X0249364Y0188749D01*
X0249246Y0188854D01*
X0249131Y0188963D01*
X0249018Y0189074D01*
X0248908Y0189188D01*
X0248801Y0189305D01*
X0248697Y0189424D01*
X0248596Y0189546D01*
X0248499Y0189671D01*
X0248404Y0189798D01*
X0248313Y0189927D01*
X0248224Y0190058D01*
X0248140Y0190192D01*
X0248058Y0190328D01*
X0247980Y0190465D01*
X0247906Y0190605D01*
X0247835Y0190747D01*
X0247767Y0190890D01*
X0247703Y0191035D01*
X0247643Y0191181D01*
X0247587Y0191329D01*
X0247534Y0191478D01*
X0247485Y0191629D01*
X0247440Y0191781D01*
X0247399Y0191934D01*
X0247361Y0192087D01*
X0247328Y0192242D01*
X0247298Y0192398D01*
X0247272Y0192554D01*
X0247251Y0192711D01*
X0247233Y0192868D01*
X0247219Y0193026D01*
X0247209Y0193184D01*
X0247203Y0193342D01*
X0247201Y0193500D01*
X0426754Y0191345D02*
X0426756Y0191503D01*
X0426762Y0191661D01*
X0426772Y0191819D01*
X0426786Y0191977D01*
X0426804Y0192134D01*
X0426825Y0192291D01*
X0426851Y0192447D01*
X0426881Y0192603D01*
X0426914Y0192758D01*
X0426952Y0192911D01*
X0426993Y0193064D01*
X0427038Y0193216D01*
X0427087Y0193367D01*
X0427140Y0193516D01*
X0427196Y0193664D01*
X0427256Y0193810D01*
X0427320Y0193955D01*
X0427388Y0194098D01*
X0427459Y0194240D01*
X0427533Y0194380D01*
X0427611Y0194517D01*
X0427693Y0194653D01*
X0427777Y0194787D01*
X0427866Y0194918D01*
X0427957Y0195047D01*
X0428052Y0195174D01*
X0428149Y0195299D01*
X0428250Y0195421D01*
X0428354Y0195540D01*
X0428461Y0195657D01*
X0428571Y0195771D01*
X0428684Y0195882D01*
X0428799Y0195991D01*
X0428917Y0196096D01*
X0429038Y0196198D01*
X0429161Y0196298D01*
X0429287Y0196394D01*
X0429415Y0196487D01*
X0429545Y0196577D01*
X0429678Y0196663D01*
X0429813Y0196747D01*
X0429949Y0196826D01*
X0430088Y0196903D01*
X0430229Y0196975D01*
X0430371Y0197045D01*
X0430515Y0197110D01*
X0430661Y0197172D01*
X0430808Y0197230D01*
X0430957Y0197285D01*
X0431107Y0197336D01*
X0431258Y0197383D01*
X0431410Y0197426D01*
X0431563Y0197465D01*
X0431718Y0197501D01*
X0431873Y0197532D01*
X0432029Y0197560D01*
X0432185Y0197584D01*
X0432342Y0197604D01*
X0432500Y0197620D01*
X0432657Y0197632D01*
X0432816Y0197640D01*
X0432974Y0197644D01*
X0433132Y0197644D01*
X0433290Y0197640D01*
X0433449Y0197632D01*
X0433606Y0197620D01*
X0433764Y0197604D01*
X0433921Y0197584D01*
X0434077Y0197560D01*
X0434233Y0197532D01*
X0434388Y0197501D01*
X0434543Y0197465D01*
X0434696Y0197426D01*
X0434848Y0197383D01*
X0434999Y0197336D01*
X0435149Y0197285D01*
X0435298Y0197230D01*
X0435445Y0197172D01*
X0435591Y0197110D01*
X0435735Y0197045D01*
X0435877Y0196975D01*
X0436018Y0196903D01*
X0436157Y0196826D01*
X0436293Y0196747D01*
X0436428Y0196663D01*
X0436561Y0196577D01*
X0436691Y0196487D01*
X0436819Y0196394D01*
X0436945Y0196298D01*
X0437068Y0196198D01*
X0437189Y0196096D01*
X0437307Y0195991D01*
X0437422Y0195882D01*
X0437535Y0195771D01*
X0437645Y0195657D01*
X0437752Y0195540D01*
X0437856Y0195421D01*
X0437957Y0195299D01*
X0438054Y0195174D01*
X0438149Y0195047D01*
X0438240Y0194918D01*
X0438329Y0194787D01*
X0438413Y0194653D01*
X0438495Y0194517D01*
X0438573Y0194380D01*
X0438647Y0194240D01*
X0438718Y0194098D01*
X0438786Y0193955D01*
X0438850Y0193810D01*
X0438910Y0193664D01*
X0438966Y0193516D01*
X0439019Y0193367D01*
X0439068Y0193216D01*
X0439113Y0193064D01*
X0439154Y0192911D01*
X0439192Y0192758D01*
X0439225Y0192603D01*
X0439255Y0192447D01*
X0439281Y0192291D01*
X0439302Y0192134D01*
X0439320Y0191977D01*
X0439334Y0191819D01*
X0439344Y0191661D01*
X0439350Y0191503D01*
X0439352Y0191345D01*
X0439350Y0191187D01*
X0439344Y0191029D01*
X0439334Y0190871D01*
X0439320Y0190713D01*
X0439302Y0190556D01*
X0439281Y0190399D01*
X0439255Y0190243D01*
X0439225Y0190087D01*
X0439192Y0189932D01*
X0439154Y0189779D01*
X0439113Y0189626D01*
X0439068Y0189474D01*
X0439019Y0189323D01*
X0438966Y0189174D01*
X0438910Y0189026D01*
X0438850Y0188880D01*
X0438786Y0188735D01*
X0438718Y0188592D01*
X0438647Y0188450D01*
X0438573Y0188310D01*
X0438495Y0188173D01*
X0438413Y0188037D01*
X0438329Y0187903D01*
X0438240Y0187772D01*
X0438149Y0187643D01*
X0438054Y0187516D01*
X0437957Y0187391D01*
X0437856Y0187269D01*
X0437752Y0187150D01*
X0437645Y0187033D01*
X0437535Y0186919D01*
X0437422Y0186808D01*
X0437307Y0186699D01*
X0437189Y0186594D01*
X0437068Y0186492D01*
X0436945Y0186392D01*
X0436819Y0186296D01*
X0436691Y0186203D01*
X0436561Y0186113D01*
X0436428Y0186027D01*
X0436293Y0185943D01*
X0436157Y0185864D01*
X0436018Y0185787D01*
X0435877Y0185715D01*
X0435735Y0185645D01*
X0435591Y0185580D01*
X0435445Y0185518D01*
X0435298Y0185460D01*
X0435149Y0185405D01*
X0434999Y0185354D01*
X0434848Y0185307D01*
X0434696Y0185264D01*
X0434543Y0185225D01*
X0434388Y0185189D01*
X0434233Y0185158D01*
X0434077Y0185130D01*
X0433921Y0185106D01*
X0433764Y0185086D01*
X0433606Y0185070D01*
X0433449Y0185058D01*
X0433290Y0185050D01*
X0433132Y0185046D01*
X0432974Y0185046D01*
X0432816Y0185050D01*
X0432657Y0185058D01*
X0432500Y0185070D01*
X0432342Y0185086D01*
X0432185Y0185106D01*
X0432029Y0185130D01*
X0431873Y0185158D01*
X0431718Y0185189D01*
X0431563Y0185225D01*
X0431410Y0185264D01*
X0431258Y0185307D01*
X0431107Y0185354D01*
X0430957Y0185405D01*
X0430808Y0185460D01*
X0430661Y0185518D01*
X0430515Y0185580D01*
X0430371Y0185645D01*
X0430229Y0185715D01*
X0430088Y0185787D01*
X0429949Y0185864D01*
X0429813Y0185943D01*
X0429678Y0186027D01*
X0429545Y0186113D01*
X0429415Y0186203D01*
X0429287Y0186296D01*
X0429161Y0186392D01*
X0429038Y0186492D01*
X0428917Y0186594D01*
X0428799Y0186699D01*
X0428684Y0186808D01*
X0428571Y0186919D01*
X0428461Y0187033D01*
X0428354Y0187150D01*
X0428250Y0187269D01*
X0428149Y0187391D01*
X0428052Y0187516D01*
X0427957Y0187643D01*
X0427866Y0187772D01*
X0427777Y0187903D01*
X0427693Y0188037D01*
X0427611Y0188173D01*
X0427533Y0188310D01*
X0427459Y0188450D01*
X0427388Y0188592D01*
X0427320Y0188735D01*
X0427256Y0188880D01*
X0427196Y0189026D01*
X0427140Y0189174D01*
X0427087Y0189323D01*
X0427038Y0189474D01*
X0426993Y0189626D01*
X0426952Y0189779D01*
X0426914Y0189932D01*
X0426881Y0190087D01*
X0426851Y0190243D01*
X0426825Y0190399D01*
X0426804Y0190556D01*
X0426786Y0190713D01*
X0426772Y0190871D01*
X0426762Y0191029D01*
X0426756Y0191187D01*
X0426754Y0191345D01*
X0427058Y0335517D02*
X0427060Y0335675D01*
X0427066Y0335833D01*
X0427076Y0335991D01*
X0427090Y0336149D01*
X0427108Y0336306D01*
X0427129Y0336463D01*
X0427155Y0336619D01*
X0427185Y0336775D01*
X0427218Y0336930D01*
X0427256Y0337083D01*
X0427297Y0337236D01*
X0427342Y0337388D01*
X0427391Y0337539D01*
X0427444Y0337688D01*
X0427500Y0337836D01*
X0427560Y0337982D01*
X0427624Y0338127D01*
X0427692Y0338270D01*
X0427763Y0338412D01*
X0427837Y0338552D01*
X0427915Y0338689D01*
X0427997Y0338825D01*
X0428081Y0338959D01*
X0428170Y0339090D01*
X0428261Y0339219D01*
X0428356Y0339346D01*
X0428453Y0339471D01*
X0428554Y0339593D01*
X0428658Y0339712D01*
X0428765Y0339829D01*
X0428875Y0339943D01*
X0428988Y0340054D01*
X0429103Y0340163D01*
X0429221Y0340268D01*
X0429342Y0340370D01*
X0429465Y0340470D01*
X0429591Y0340566D01*
X0429719Y0340659D01*
X0429849Y0340749D01*
X0429982Y0340835D01*
X0430117Y0340919D01*
X0430253Y0340998D01*
X0430392Y0341075D01*
X0430533Y0341147D01*
X0430675Y0341217D01*
X0430819Y0341282D01*
X0430965Y0341344D01*
X0431112Y0341402D01*
X0431261Y0341457D01*
X0431411Y0341508D01*
X0431562Y0341555D01*
X0431714Y0341598D01*
X0431867Y0341637D01*
X0432022Y0341673D01*
X0432177Y0341704D01*
X0432333Y0341732D01*
X0432489Y0341756D01*
X0432646Y0341776D01*
X0432804Y0341792D01*
X0432961Y0341804D01*
X0433120Y0341812D01*
X0433278Y0341816D01*
X0433436Y0341816D01*
X0433594Y0341812D01*
X0433753Y0341804D01*
X0433910Y0341792D01*
X0434068Y0341776D01*
X0434225Y0341756D01*
X0434381Y0341732D01*
X0434537Y0341704D01*
X0434692Y0341673D01*
X0434847Y0341637D01*
X0435000Y0341598D01*
X0435152Y0341555D01*
X0435303Y0341508D01*
X0435453Y0341457D01*
X0435602Y0341402D01*
X0435749Y0341344D01*
X0435895Y0341282D01*
X0436039Y0341217D01*
X0436181Y0341147D01*
X0436322Y0341075D01*
X0436461Y0340998D01*
X0436597Y0340919D01*
X0436732Y0340835D01*
X0436865Y0340749D01*
X0436995Y0340659D01*
X0437123Y0340566D01*
X0437249Y0340470D01*
X0437372Y0340370D01*
X0437493Y0340268D01*
X0437611Y0340163D01*
X0437726Y0340054D01*
X0437839Y0339943D01*
X0437949Y0339829D01*
X0438056Y0339712D01*
X0438160Y0339593D01*
X0438261Y0339471D01*
X0438358Y0339346D01*
X0438453Y0339219D01*
X0438544Y0339090D01*
X0438633Y0338959D01*
X0438717Y0338825D01*
X0438799Y0338689D01*
X0438877Y0338552D01*
X0438951Y0338412D01*
X0439022Y0338270D01*
X0439090Y0338127D01*
X0439154Y0337982D01*
X0439214Y0337836D01*
X0439270Y0337688D01*
X0439323Y0337539D01*
X0439372Y0337388D01*
X0439417Y0337236D01*
X0439458Y0337083D01*
X0439496Y0336930D01*
X0439529Y0336775D01*
X0439559Y0336619D01*
X0439585Y0336463D01*
X0439606Y0336306D01*
X0439624Y0336149D01*
X0439638Y0335991D01*
X0439648Y0335833D01*
X0439654Y0335675D01*
X0439656Y0335517D01*
X0439654Y0335359D01*
X0439648Y0335201D01*
X0439638Y0335043D01*
X0439624Y0334885D01*
X0439606Y0334728D01*
X0439585Y0334571D01*
X0439559Y0334415D01*
X0439529Y0334259D01*
X0439496Y0334104D01*
X0439458Y0333951D01*
X0439417Y0333798D01*
X0439372Y0333646D01*
X0439323Y0333495D01*
X0439270Y0333346D01*
X0439214Y0333198D01*
X0439154Y0333052D01*
X0439090Y0332907D01*
X0439022Y0332764D01*
X0438951Y0332622D01*
X0438877Y0332482D01*
X0438799Y0332345D01*
X0438717Y0332209D01*
X0438633Y0332075D01*
X0438544Y0331944D01*
X0438453Y0331815D01*
X0438358Y0331688D01*
X0438261Y0331563D01*
X0438160Y0331441D01*
X0438056Y0331322D01*
X0437949Y0331205D01*
X0437839Y0331091D01*
X0437726Y0330980D01*
X0437611Y0330871D01*
X0437493Y0330766D01*
X0437372Y0330664D01*
X0437249Y0330564D01*
X0437123Y0330468D01*
X0436995Y0330375D01*
X0436865Y0330285D01*
X0436732Y0330199D01*
X0436597Y0330115D01*
X0436461Y0330036D01*
X0436322Y0329959D01*
X0436181Y0329887D01*
X0436039Y0329817D01*
X0435895Y0329752D01*
X0435749Y0329690D01*
X0435602Y0329632D01*
X0435453Y0329577D01*
X0435303Y0329526D01*
X0435152Y0329479D01*
X0435000Y0329436D01*
X0434847Y0329397D01*
X0434692Y0329361D01*
X0434537Y0329330D01*
X0434381Y0329302D01*
X0434225Y0329278D01*
X0434068Y0329258D01*
X0433910Y0329242D01*
X0433753Y0329230D01*
X0433594Y0329222D01*
X0433436Y0329218D01*
X0433278Y0329218D01*
X0433120Y0329222D01*
X0432961Y0329230D01*
X0432804Y0329242D01*
X0432646Y0329258D01*
X0432489Y0329278D01*
X0432333Y0329302D01*
X0432177Y0329330D01*
X0432022Y0329361D01*
X0431867Y0329397D01*
X0431714Y0329436D01*
X0431562Y0329479D01*
X0431411Y0329526D01*
X0431261Y0329577D01*
X0431112Y0329632D01*
X0430965Y0329690D01*
X0430819Y0329752D01*
X0430675Y0329817D01*
X0430533Y0329887D01*
X0430392Y0329959D01*
X0430253Y0330036D01*
X0430117Y0330115D01*
X0429982Y0330199D01*
X0429849Y0330285D01*
X0429719Y0330375D01*
X0429591Y0330468D01*
X0429465Y0330564D01*
X0429342Y0330664D01*
X0429221Y0330766D01*
X0429103Y0330871D01*
X0428988Y0330980D01*
X0428875Y0331091D01*
X0428765Y0331205D01*
X0428658Y0331322D01*
X0428554Y0331441D01*
X0428453Y0331563D01*
X0428356Y0331688D01*
X0428261Y0331815D01*
X0428170Y0331944D01*
X0428081Y0332075D01*
X0427997Y0332209D01*
X0427915Y0332345D01*
X0427837Y0332482D01*
X0427763Y0332622D01*
X0427692Y0332764D01*
X0427624Y0332907D01*
X0427560Y0333052D01*
X0427500Y0333198D01*
X0427444Y0333346D01*
X0427391Y0333495D01*
X0427342Y0333646D01*
X0427297Y0333798D01*
X0427256Y0333951D01*
X0427218Y0334104D01*
X0427185Y0334259D01*
X0427155Y0334415D01*
X0427129Y0334571D01*
X0427108Y0334728D01*
X0427090Y0334885D01*
X0427076Y0335043D01*
X0427066Y0335201D01*
X0427060Y0335359D01*
X0427058Y0335517D01*
X0247201Y0368500D02*
X0247203Y0368658D01*
X0247209Y0368816D01*
X0247219Y0368974D01*
X0247233Y0369132D01*
X0247251Y0369289D01*
X0247272Y0369446D01*
X0247298Y0369602D01*
X0247328Y0369758D01*
X0247361Y0369913D01*
X0247399Y0370066D01*
X0247440Y0370219D01*
X0247485Y0370371D01*
X0247534Y0370522D01*
X0247587Y0370671D01*
X0247643Y0370819D01*
X0247703Y0370965D01*
X0247767Y0371110D01*
X0247835Y0371253D01*
X0247906Y0371395D01*
X0247980Y0371535D01*
X0248058Y0371672D01*
X0248140Y0371808D01*
X0248224Y0371942D01*
X0248313Y0372073D01*
X0248404Y0372202D01*
X0248499Y0372329D01*
X0248596Y0372454D01*
X0248697Y0372576D01*
X0248801Y0372695D01*
X0248908Y0372812D01*
X0249018Y0372926D01*
X0249131Y0373037D01*
X0249246Y0373146D01*
X0249364Y0373251D01*
X0249485Y0373353D01*
X0249608Y0373453D01*
X0249734Y0373549D01*
X0249862Y0373642D01*
X0249992Y0373732D01*
X0250125Y0373818D01*
X0250260Y0373902D01*
X0250396Y0373981D01*
X0250535Y0374058D01*
X0250676Y0374130D01*
X0250818Y0374200D01*
X0250962Y0374265D01*
X0251108Y0374327D01*
X0251255Y0374385D01*
X0251404Y0374440D01*
X0251554Y0374491D01*
X0251705Y0374538D01*
X0251857Y0374581D01*
X0252010Y0374620D01*
X0252165Y0374656D01*
X0252320Y0374687D01*
X0252476Y0374715D01*
X0252632Y0374739D01*
X0252789Y0374759D01*
X0252947Y0374775D01*
X0253104Y0374787D01*
X0253263Y0374795D01*
X0253421Y0374799D01*
X0253579Y0374799D01*
X0253737Y0374795D01*
X0253896Y0374787D01*
X0254053Y0374775D01*
X0254211Y0374759D01*
X0254368Y0374739D01*
X0254524Y0374715D01*
X0254680Y0374687D01*
X0254835Y0374656D01*
X0254990Y0374620D01*
X0255143Y0374581D01*
X0255295Y0374538D01*
X0255446Y0374491D01*
X0255596Y0374440D01*
X0255745Y0374385D01*
X0255892Y0374327D01*
X0256038Y0374265D01*
X0256182Y0374200D01*
X0256324Y0374130D01*
X0256465Y0374058D01*
X0256604Y0373981D01*
X0256740Y0373902D01*
X0256875Y0373818D01*
X0257008Y0373732D01*
X0257138Y0373642D01*
X0257266Y0373549D01*
X0257392Y0373453D01*
X0257515Y0373353D01*
X0257636Y0373251D01*
X0257754Y0373146D01*
X0257869Y0373037D01*
X0257982Y0372926D01*
X0258092Y0372812D01*
X0258199Y0372695D01*
X0258303Y0372576D01*
X0258404Y0372454D01*
X0258501Y0372329D01*
X0258596Y0372202D01*
X0258687Y0372073D01*
X0258776Y0371942D01*
X0258860Y0371808D01*
X0258942Y0371672D01*
X0259020Y0371535D01*
X0259094Y0371395D01*
X0259165Y0371253D01*
X0259233Y0371110D01*
X0259297Y0370965D01*
X0259357Y0370819D01*
X0259413Y0370671D01*
X0259466Y0370522D01*
X0259515Y0370371D01*
X0259560Y0370219D01*
X0259601Y0370066D01*
X0259639Y0369913D01*
X0259672Y0369758D01*
X0259702Y0369602D01*
X0259728Y0369446D01*
X0259749Y0369289D01*
X0259767Y0369132D01*
X0259781Y0368974D01*
X0259791Y0368816D01*
X0259797Y0368658D01*
X0259799Y0368500D01*
X0259797Y0368342D01*
X0259791Y0368184D01*
X0259781Y0368026D01*
X0259767Y0367868D01*
X0259749Y0367711D01*
X0259728Y0367554D01*
X0259702Y0367398D01*
X0259672Y0367242D01*
X0259639Y0367087D01*
X0259601Y0366934D01*
X0259560Y0366781D01*
X0259515Y0366629D01*
X0259466Y0366478D01*
X0259413Y0366329D01*
X0259357Y0366181D01*
X0259297Y0366035D01*
X0259233Y0365890D01*
X0259165Y0365747D01*
X0259094Y0365605D01*
X0259020Y0365465D01*
X0258942Y0365328D01*
X0258860Y0365192D01*
X0258776Y0365058D01*
X0258687Y0364927D01*
X0258596Y0364798D01*
X0258501Y0364671D01*
X0258404Y0364546D01*
X0258303Y0364424D01*
X0258199Y0364305D01*
X0258092Y0364188D01*
X0257982Y0364074D01*
X0257869Y0363963D01*
X0257754Y0363854D01*
X0257636Y0363749D01*
X0257515Y0363647D01*
X0257392Y0363547D01*
X0257266Y0363451D01*
X0257138Y0363358D01*
X0257008Y0363268D01*
X0256875Y0363182D01*
X0256740Y0363098D01*
X0256604Y0363019D01*
X0256465Y0362942D01*
X0256324Y0362870D01*
X0256182Y0362800D01*
X0256038Y0362735D01*
X0255892Y0362673D01*
X0255745Y0362615D01*
X0255596Y0362560D01*
X0255446Y0362509D01*
X0255295Y0362462D01*
X0255143Y0362419D01*
X0254990Y0362380D01*
X0254835Y0362344D01*
X0254680Y0362313D01*
X0254524Y0362285D01*
X0254368Y0362261D01*
X0254211Y0362241D01*
X0254053Y0362225D01*
X0253896Y0362213D01*
X0253737Y0362205D01*
X0253579Y0362201D01*
X0253421Y0362201D01*
X0253263Y0362205D01*
X0253104Y0362213D01*
X0252947Y0362225D01*
X0252789Y0362241D01*
X0252632Y0362261D01*
X0252476Y0362285D01*
X0252320Y0362313D01*
X0252165Y0362344D01*
X0252010Y0362380D01*
X0251857Y0362419D01*
X0251705Y0362462D01*
X0251554Y0362509D01*
X0251404Y0362560D01*
X0251255Y0362615D01*
X0251108Y0362673D01*
X0250962Y0362735D01*
X0250818Y0362800D01*
X0250676Y0362870D01*
X0250535Y0362942D01*
X0250396Y0363019D01*
X0250260Y0363098D01*
X0250125Y0363182D01*
X0249992Y0363268D01*
X0249862Y0363358D01*
X0249734Y0363451D01*
X0249608Y0363547D01*
X0249485Y0363647D01*
X0249364Y0363749D01*
X0249246Y0363854D01*
X0249131Y0363963D01*
X0249018Y0364074D01*
X0248908Y0364188D01*
X0248801Y0364305D01*
X0248697Y0364424D01*
X0248596Y0364546D01*
X0248499Y0364671D01*
X0248404Y0364798D01*
X0248313Y0364927D01*
X0248224Y0365058D01*
X0248140Y0365192D01*
X0248058Y0365328D01*
X0247980Y0365465D01*
X0247906Y0365605D01*
X0247835Y0365747D01*
X0247767Y0365890D01*
X0247703Y0366035D01*
X0247643Y0366181D01*
X0247587Y0366329D01*
X0247534Y0366478D01*
X0247485Y0366629D01*
X0247440Y0366781D01*
X0247399Y0366934D01*
X0247361Y0367087D01*
X0247328Y0367242D01*
X0247298Y0367398D01*
X0247272Y0367554D01*
X0247251Y0367711D01*
X0247233Y0367868D01*
X0247219Y0368026D01*
X0247209Y0368184D01*
X0247203Y0368342D01*
X0247201Y0368500D01*
D11*
X0253500Y0368500D03*
X0433357Y0335517D03*
X0433053Y0191345D03*
X0253500Y0193500D03*
D12*
X0296141Y0246327D03*
X0296141Y0256327D03*
X0288500Y0273500D03*
X0278500Y0273500D03*
X0318710Y0302684D03*
X0328710Y0302684D03*
X0341000Y0301000D03*
X0341000Y0291000D03*
X0341000Y0313500D03*
X0341000Y0323500D03*
X0308500Y0346000D03*
X0308500Y0356000D03*
X0350268Y0257936D03*
X0360268Y0257936D03*
X0413159Y0257366D03*
X0423159Y0257366D03*
D13*
X0297890Y0290035D03*
X0297890Y0303421D03*
X0297890Y0316807D03*
X0297890Y0330193D03*
X0297890Y0343579D03*
X0297890Y0356965D03*
X0277890Y0350272D03*
X0277890Y0336886D03*
X0277890Y0323500D03*
X0277890Y0310114D03*
X0277890Y0296728D03*
D14*
X0398579Y0345700D03*
X0398579Y0353500D03*
X0408421Y0353500D03*
X0408421Y0345700D03*
D15*
X0427200Y0364200D03*
X0379800Y0364200D03*
D16*
X0334858Y0246463D03*
X0325252Y0246463D03*
X0315858Y0246463D03*
D17*
X0311147Y0270835D03*
X0329865Y0280304D03*
X0341147Y0270835D03*
X0350320Y0272561D03*
X0359865Y0280304D03*
X0380320Y0272561D03*
X0402271Y0247270D03*
X0387682Y0238158D03*
X0379651Y0238349D03*
X0349651Y0238349D03*
X0283500Y0208500D03*
X0253500Y0208500D03*
X0417682Y0238158D03*
X0432271Y0247270D03*
D18*
X0423500Y0231100D02*
X0423500Y0225900D01*
X0413500Y0225900D02*
X0413500Y0231100D01*
X0403500Y0231100D02*
X0403500Y0225900D01*
X0393500Y0225900D02*
X0393500Y0231100D01*
X0383500Y0231100D02*
X0383500Y0225900D01*
X0373500Y0225900D02*
X0373500Y0231100D01*
X0363500Y0231100D02*
X0363500Y0225900D01*
X0353500Y0225900D02*
X0353500Y0231100D01*
X0343500Y0231100D02*
X0343500Y0225900D01*
X0333500Y0225900D02*
X0333500Y0231100D01*
X0323500Y0231100D02*
X0323500Y0225900D01*
X0313500Y0225900D02*
X0313500Y0231100D01*
X0303500Y0231100D02*
X0303500Y0225900D01*
X0293500Y0225900D02*
X0293500Y0231100D01*
X0293500Y0201100D02*
X0293500Y0195900D01*
X0303500Y0195900D02*
X0303500Y0201100D01*
X0313500Y0201100D02*
X0313500Y0195900D01*
X0323500Y0195900D02*
X0323500Y0201100D01*
X0333500Y0201100D02*
X0333500Y0195900D01*
X0343500Y0195900D02*
X0343500Y0201100D01*
X0353500Y0201100D02*
X0353500Y0195900D01*
X0363500Y0195900D02*
X0363500Y0201100D01*
X0373500Y0201100D02*
X0373500Y0195900D01*
X0383500Y0195900D02*
X0383500Y0201100D01*
X0393500Y0201100D02*
X0393500Y0195900D01*
X0403500Y0195900D02*
X0403500Y0201100D01*
X0413500Y0201100D02*
X0413500Y0195900D01*
X0423500Y0195900D02*
X0423500Y0201100D01*
X0420900Y0268500D02*
X0426100Y0268500D01*
X0426100Y0278500D02*
X0420900Y0278500D01*
X0420900Y0288500D02*
X0426100Y0288500D01*
X0426100Y0298500D02*
X0420900Y0298500D01*
X0420900Y0308500D02*
X0426100Y0308500D01*
X0426100Y0318500D02*
X0420900Y0318500D01*
X0420900Y0328500D02*
X0426100Y0328500D01*
X0396100Y0328500D02*
X0390900Y0328500D01*
X0390900Y0318500D02*
X0396100Y0318500D01*
X0396100Y0308500D02*
X0390900Y0308500D01*
X0390900Y0298500D02*
X0396100Y0298500D01*
X0396100Y0288500D02*
X0390900Y0288500D01*
X0390900Y0278500D02*
X0396100Y0278500D01*
X0396100Y0268500D02*
X0390900Y0268500D01*
X0379634Y0287731D02*
X0379634Y0292931D01*
X0369634Y0292931D02*
X0369634Y0287731D01*
X0359634Y0287731D02*
X0359634Y0292931D01*
X0359634Y0322931D02*
X0359634Y0328131D01*
X0369634Y0328131D02*
X0369634Y0322931D01*
X0379634Y0322931D02*
X0379634Y0328131D01*
D19*
X0353500Y0339563D03*
X0334996Y0351374D03*
X0353500Y0363185D03*
D20*
X0262223Y0248836D02*
X0252853Y0248836D01*
X0252853Y0229151D02*
X0262223Y0229151D01*
D21*
X0374120Y0246215D03*
X0374120Y0256215D03*
D22*
X0321951Y0285768D03*
X0314451Y0290768D03*
X0314451Y0280768D03*
X0317919Y0328710D03*
X0312919Y0336210D03*
X0307919Y0328710D03*
M02*
