%
M48
M72
T01C0.02362
T02C0.02756
T03C0.03200
T04C0.03543
T05C0.03600
T06C0.04331
T07C0.05512
T08C0.09000
T09C0.11800
T10C0.12598
%
T01
X289492Y337193
X288975Y310040
X309566Y285787
X296133Y282373
X322925Y264290
X328040Y290085
X335415Y307515
X348750Y307515
X383571Y336962
X362223Y352176
X332223Y372176
X400672Y369884
X408541Y303032
X396992Y258879
X386629Y249123
X402603Y212186
X323773Y216304
X277909Y215773
X268500Y263500
T02
X296141Y246327
X296141Y256327
X288500Y273500
X278500Y273500
X315858Y246463
X325252Y246463
X334858Y246463
X350268Y257936
X360268Y257936
X341000Y291000
X341000Y301000
X328710Y302684
X318710Y302684
X341000Y313500
X341000Y323500
X308500Y346000
X308500Y356000
X413159Y257366
X423159Y257366
T03
X307919Y328710
X312919Y336210
X317919Y328710
X359634Y322931
X369634Y322931
X379634Y322931
X393500Y318500
X393500Y308500
X393500Y298500
X393500Y288500
X393500Y278500
X393500Y268500
X374120Y256215
X374120Y246215
X373500Y228500
X363500Y228500
X353500Y228500
X343500Y228500
X333500Y228500
X323500Y228500
X313500Y228500
X303500Y228500
X293500Y228500
X293500Y198500
X303500Y198500
X313500Y198500
X323500Y198500
X333500Y198500
X343500Y198500
X353500Y198500
X363500Y198500
X373500Y198500
X383500Y198500
X393500Y198500
X403500Y198500
X413500Y198500
X423500Y198500
X423500Y228500
X413500Y228500
X403500Y228500
X393500Y228500
X383500Y228500
X423500Y268500
X423500Y278500
X423500Y288500
X423500Y298500
X423500Y308500
X423500Y318500
X423500Y328500
X393500Y328500
X379634Y292931
X369634Y292931
X359634Y292931
X321951Y285768
X314451Y290768
X314451Y280768
T04
X253500Y208500
X283500Y208500
X349651Y238349
X379651Y238349
X387682Y238158
X402271Y247270
X417682Y238158
X432271Y247270
X380320Y272561
X359865Y280304
X350320Y272561
X341147Y270835
X329865Y280304
X311147Y270835
T05
X398579Y345700
X398579Y353500
X408421Y353500
X408421Y345700
T06
X277890Y350272
X277890Y336886
X277890Y323500
X277890Y310114
X277890Y296728
X297890Y290035
X297890Y303421
X297890Y316807
X297890Y330193
X297890Y343579
X297890Y356965
T07
X257538Y229151
X257538Y248836
T08
X427200Y364200
X379800Y364200
T09
X334996Y351374
X353500Y339563
X353500Y363185
T10
X253500Y193500
X433053Y191345
X433357Y335517
X253500Y368500
M30
