G75*
%MOIN*%
%OFA0B0*%
%FSLAX25Y25*%
%IPPOS*%
%LPD*%
%AMOC8*
5,1,8,0,0,1.08239X$1,22.5*
%
%ADD10C,0.00000*%
%ADD11C,0.06500*%
%ADD12C,0.07000*%
%ADD13C,0.06600*%
%ADD14C,0.13000*%
%ADD15C,0.04756*%
%ADD16C,0.07400*%
%ADD17C,0.05200*%
%ADD18C,0.17000*%
%ADD19C,0.09370*%
%ADD20C,0.05200*%
%ADD21OC8,0.05200*%
%ADD22C,0.03200*%
%ADD23C,0.05000*%
%ADD24R,0.03562X0.03562*%
%ADD25C,0.04000*%
%ADD26C,0.08600*%
%ADD27C,0.10000*%
%ADD28C,0.17717*%
%ADD29C,0.07000*%
D10*
X0243500Y0183500D02*
X0243500Y0378461D01*
X0440350Y0378461D01*
X0440350Y0183500D01*
X0243500Y0183500D01*
X0247201Y0193500D02*
X0247203Y0193658D01*
X0247209Y0193816D01*
X0247219Y0193974D01*
X0247233Y0194132D01*
X0247251Y0194289D01*
X0247272Y0194446D01*
X0247298Y0194602D01*
X0247328Y0194758D01*
X0247361Y0194913D01*
X0247399Y0195066D01*
X0247440Y0195219D01*
X0247485Y0195371D01*
X0247534Y0195522D01*
X0247587Y0195671D01*
X0247643Y0195819D01*
X0247703Y0195965D01*
X0247767Y0196110D01*
X0247835Y0196253D01*
X0247906Y0196395D01*
X0247980Y0196535D01*
X0248058Y0196672D01*
X0248140Y0196808D01*
X0248224Y0196942D01*
X0248313Y0197073D01*
X0248404Y0197202D01*
X0248499Y0197329D01*
X0248596Y0197454D01*
X0248697Y0197576D01*
X0248801Y0197695D01*
X0248908Y0197812D01*
X0249018Y0197926D01*
X0249131Y0198037D01*
X0249246Y0198146D01*
X0249364Y0198251D01*
X0249485Y0198353D01*
X0249608Y0198453D01*
X0249734Y0198549D01*
X0249862Y0198642D01*
X0249992Y0198732D01*
X0250125Y0198818D01*
X0250260Y0198902D01*
X0250396Y0198981D01*
X0250535Y0199058D01*
X0250676Y0199130D01*
X0250818Y0199200D01*
X0250962Y0199265D01*
X0251108Y0199327D01*
X0251255Y0199385D01*
X0251404Y0199440D01*
X0251554Y0199491D01*
X0251705Y0199538D01*
X0251857Y0199581D01*
X0252010Y0199620D01*
X0252165Y0199656D01*
X0252320Y0199687D01*
X0252476Y0199715D01*
X0252632Y0199739D01*
X0252789Y0199759D01*
X0252947Y0199775D01*
X0253104Y0199787D01*
X0253263Y0199795D01*
X0253421Y0199799D01*
X0253579Y0199799D01*
X0253737Y0199795D01*
X0253896Y0199787D01*
X0254053Y0199775D01*
X0254211Y0199759D01*
X0254368Y0199739D01*
X0254524Y0199715D01*
X0254680Y0199687D01*
X0254835Y0199656D01*
X0254990Y0199620D01*
X0255143Y0199581D01*
X0255295Y0199538D01*
X0255446Y0199491D01*
X0255596Y0199440D01*
X0255745Y0199385D01*
X0255892Y0199327D01*
X0256038Y0199265D01*
X0256182Y0199200D01*
X0256324Y0199130D01*
X0256465Y0199058D01*
X0256604Y0198981D01*
X0256740Y0198902D01*
X0256875Y0198818D01*
X0257008Y0198732D01*
X0257138Y0198642D01*
X0257266Y0198549D01*
X0257392Y0198453D01*
X0257515Y0198353D01*
X0257636Y0198251D01*
X0257754Y0198146D01*
X0257869Y0198037D01*
X0257982Y0197926D01*
X0258092Y0197812D01*
X0258199Y0197695D01*
X0258303Y0197576D01*
X0258404Y0197454D01*
X0258501Y0197329D01*
X0258596Y0197202D01*
X0258687Y0197073D01*
X0258776Y0196942D01*
X0258860Y0196808D01*
X0258942Y0196672D01*
X0259020Y0196535D01*
X0259094Y0196395D01*
X0259165Y0196253D01*
X0259233Y0196110D01*
X0259297Y0195965D01*
X0259357Y0195819D01*
X0259413Y0195671D01*
X0259466Y0195522D01*
X0259515Y0195371D01*
X0259560Y0195219D01*
X0259601Y0195066D01*
X0259639Y0194913D01*
X0259672Y0194758D01*
X0259702Y0194602D01*
X0259728Y0194446D01*
X0259749Y0194289D01*
X0259767Y0194132D01*
X0259781Y0193974D01*
X0259791Y0193816D01*
X0259797Y0193658D01*
X0259799Y0193500D01*
X0259797Y0193342D01*
X0259791Y0193184D01*
X0259781Y0193026D01*
X0259767Y0192868D01*
X0259749Y0192711D01*
X0259728Y0192554D01*
X0259702Y0192398D01*
X0259672Y0192242D01*
X0259639Y0192087D01*
X0259601Y0191934D01*
X0259560Y0191781D01*
X0259515Y0191629D01*
X0259466Y0191478D01*
X0259413Y0191329D01*
X0259357Y0191181D01*
X0259297Y0191035D01*
X0259233Y0190890D01*
X0259165Y0190747D01*
X0259094Y0190605D01*
X0259020Y0190465D01*
X0258942Y0190328D01*
X0258860Y0190192D01*
X0258776Y0190058D01*
X0258687Y0189927D01*
X0258596Y0189798D01*
X0258501Y0189671D01*
X0258404Y0189546D01*
X0258303Y0189424D01*
X0258199Y0189305D01*
X0258092Y0189188D01*
X0257982Y0189074D01*
X0257869Y0188963D01*
X0257754Y0188854D01*
X0257636Y0188749D01*
X0257515Y0188647D01*
X0257392Y0188547D01*
X0257266Y0188451D01*
X0257138Y0188358D01*
X0257008Y0188268D01*
X0256875Y0188182D01*
X0256740Y0188098D01*
X0256604Y0188019D01*
X0256465Y0187942D01*
X0256324Y0187870D01*
X0256182Y0187800D01*
X0256038Y0187735D01*
X0255892Y0187673D01*
X0255745Y0187615D01*
X0255596Y0187560D01*
X0255446Y0187509D01*
X0255295Y0187462D01*
X0255143Y0187419D01*
X0254990Y0187380D01*
X0254835Y0187344D01*
X0254680Y0187313D01*
X0254524Y0187285D01*
X0254368Y0187261D01*
X0254211Y0187241D01*
X0254053Y0187225D01*
X0253896Y0187213D01*
X0253737Y0187205D01*
X0253579Y0187201D01*
X0253421Y0187201D01*
X0253263Y0187205D01*
X0253104Y0187213D01*
X0252947Y0187225D01*
X0252789Y0187241D01*
X0252632Y0187261D01*
X0252476Y0187285D01*
X0252320Y0187313D01*
X0252165Y0187344D01*
X0252010Y0187380D01*
X0251857Y0187419D01*
X0251705Y0187462D01*
X0251554Y0187509D01*
X0251404Y0187560D01*
X0251255Y0187615D01*
X0251108Y0187673D01*
X0250962Y0187735D01*
X0250818Y0187800D01*
X0250676Y0187870D01*
X0250535Y0187942D01*
X0250396Y0188019D01*
X0250260Y0188098D01*
X0250125Y0188182D01*
X0249992Y0188268D01*
X0249862Y0188358D01*
X0249734Y0188451D01*
X0249608Y0188547D01*
X0249485Y0188647D01*
X0249364Y0188749D01*
X0249246Y0188854D01*
X0249131Y0188963D01*
X0249018Y0189074D01*
X0248908Y0189188D01*
X0248801Y0189305D01*
X0248697Y0189424D01*
X0248596Y0189546D01*
X0248499Y0189671D01*
X0248404Y0189798D01*
X0248313Y0189927D01*
X0248224Y0190058D01*
X0248140Y0190192D01*
X0248058Y0190328D01*
X0247980Y0190465D01*
X0247906Y0190605D01*
X0247835Y0190747D01*
X0247767Y0190890D01*
X0247703Y0191035D01*
X0247643Y0191181D01*
X0247587Y0191329D01*
X0247534Y0191478D01*
X0247485Y0191629D01*
X0247440Y0191781D01*
X0247399Y0191934D01*
X0247361Y0192087D01*
X0247328Y0192242D01*
X0247298Y0192398D01*
X0247272Y0192554D01*
X0247251Y0192711D01*
X0247233Y0192868D01*
X0247219Y0193026D01*
X0247209Y0193184D01*
X0247203Y0193342D01*
X0247201Y0193500D01*
X0426754Y0191345D02*
X0426756Y0191503D01*
X0426762Y0191661D01*
X0426772Y0191819D01*
X0426786Y0191977D01*
X0426804Y0192134D01*
X0426825Y0192291D01*
X0426851Y0192447D01*
X0426881Y0192603D01*
X0426914Y0192758D01*
X0426952Y0192911D01*
X0426993Y0193064D01*
X0427038Y0193216D01*
X0427087Y0193367D01*
X0427140Y0193516D01*
X0427196Y0193664D01*
X0427256Y0193810D01*
X0427320Y0193955D01*
X0427388Y0194098D01*
X0427459Y0194240D01*
X0427533Y0194380D01*
X0427611Y0194517D01*
X0427693Y0194653D01*
X0427777Y0194787D01*
X0427866Y0194918D01*
X0427957Y0195047D01*
X0428052Y0195174D01*
X0428149Y0195299D01*
X0428250Y0195421D01*
X0428354Y0195540D01*
X0428461Y0195657D01*
X0428571Y0195771D01*
X0428684Y0195882D01*
X0428799Y0195991D01*
X0428917Y0196096D01*
X0429038Y0196198D01*
X0429161Y0196298D01*
X0429287Y0196394D01*
X0429415Y0196487D01*
X0429545Y0196577D01*
X0429678Y0196663D01*
X0429813Y0196747D01*
X0429949Y0196826D01*
X0430088Y0196903D01*
X0430229Y0196975D01*
X0430371Y0197045D01*
X0430515Y0197110D01*
X0430661Y0197172D01*
X0430808Y0197230D01*
X0430957Y0197285D01*
X0431107Y0197336D01*
X0431258Y0197383D01*
X0431410Y0197426D01*
X0431563Y0197465D01*
X0431718Y0197501D01*
X0431873Y0197532D01*
X0432029Y0197560D01*
X0432185Y0197584D01*
X0432342Y0197604D01*
X0432500Y0197620D01*
X0432657Y0197632D01*
X0432816Y0197640D01*
X0432974Y0197644D01*
X0433132Y0197644D01*
X0433290Y0197640D01*
X0433449Y0197632D01*
X0433606Y0197620D01*
X0433764Y0197604D01*
X0433921Y0197584D01*
X0434077Y0197560D01*
X0434233Y0197532D01*
X0434388Y0197501D01*
X0434543Y0197465D01*
X0434696Y0197426D01*
X0434848Y0197383D01*
X0434999Y0197336D01*
X0435149Y0197285D01*
X0435298Y0197230D01*
X0435445Y0197172D01*
X0435591Y0197110D01*
X0435735Y0197045D01*
X0435877Y0196975D01*
X0436018Y0196903D01*
X0436157Y0196826D01*
X0436293Y0196747D01*
X0436428Y0196663D01*
X0436561Y0196577D01*
X0436691Y0196487D01*
X0436819Y0196394D01*
X0436945Y0196298D01*
X0437068Y0196198D01*
X0437189Y0196096D01*
X0437307Y0195991D01*
X0437422Y0195882D01*
X0437535Y0195771D01*
X0437645Y0195657D01*
X0437752Y0195540D01*
X0437856Y0195421D01*
X0437957Y0195299D01*
X0438054Y0195174D01*
X0438149Y0195047D01*
X0438240Y0194918D01*
X0438329Y0194787D01*
X0438413Y0194653D01*
X0438495Y0194517D01*
X0438573Y0194380D01*
X0438647Y0194240D01*
X0438718Y0194098D01*
X0438786Y0193955D01*
X0438850Y0193810D01*
X0438910Y0193664D01*
X0438966Y0193516D01*
X0439019Y0193367D01*
X0439068Y0193216D01*
X0439113Y0193064D01*
X0439154Y0192911D01*
X0439192Y0192758D01*
X0439225Y0192603D01*
X0439255Y0192447D01*
X0439281Y0192291D01*
X0439302Y0192134D01*
X0439320Y0191977D01*
X0439334Y0191819D01*
X0439344Y0191661D01*
X0439350Y0191503D01*
X0439352Y0191345D01*
X0439350Y0191187D01*
X0439344Y0191029D01*
X0439334Y0190871D01*
X0439320Y0190713D01*
X0439302Y0190556D01*
X0439281Y0190399D01*
X0439255Y0190243D01*
X0439225Y0190087D01*
X0439192Y0189932D01*
X0439154Y0189779D01*
X0439113Y0189626D01*
X0439068Y0189474D01*
X0439019Y0189323D01*
X0438966Y0189174D01*
X0438910Y0189026D01*
X0438850Y0188880D01*
X0438786Y0188735D01*
X0438718Y0188592D01*
X0438647Y0188450D01*
X0438573Y0188310D01*
X0438495Y0188173D01*
X0438413Y0188037D01*
X0438329Y0187903D01*
X0438240Y0187772D01*
X0438149Y0187643D01*
X0438054Y0187516D01*
X0437957Y0187391D01*
X0437856Y0187269D01*
X0437752Y0187150D01*
X0437645Y0187033D01*
X0437535Y0186919D01*
X0437422Y0186808D01*
X0437307Y0186699D01*
X0437189Y0186594D01*
X0437068Y0186492D01*
X0436945Y0186392D01*
X0436819Y0186296D01*
X0436691Y0186203D01*
X0436561Y0186113D01*
X0436428Y0186027D01*
X0436293Y0185943D01*
X0436157Y0185864D01*
X0436018Y0185787D01*
X0435877Y0185715D01*
X0435735Y0185645D01*
X0435591Y0185580D01*
X0435445Y0185518D01*
X0435298Y0185460D01*
X0435149Y0185405D01*
X0434999Y0185354D01*
X0434848Y0185307D01*
X0434696Y0185264D01*
X0434543Y0185225D01*
X0434388Y0185189D01*
X0434233Y0185158D01*
X0434077Y0185130D01*
X0433921Y0185106D01*
X0433764Y0185086D01*
X0433606Y0185070D01*
X0433449Y0185058D01*
X0433290Y0185050D01*
X0433132Y0185046D01*
X0432974Y0185046D01*
X0432816Y0185050D01*
X0432657Y0185058D01*
X0432500Y0185070D01*
X0432342Y0185086D01*
X0432185Y0185106D01*
X0432029Y0185130D01*
X0431873Y0185158D01*
X0431718Y0185189D01*
X0431563Y0185225D01*
X0431410Y0185264D01*
X0431258Y0185307D01*
X0431107Y0185354D01*
X0430957Y0185405D01*
X0430808Y0185460D01*
X0430661Y0185518D01*
X0430515Y0185580D01*
X0430371Y0185645D01*
X0430229Y0185715D01*
X0430088Y0185787D01*
X0429949Y0185864D01*
X0429813Y0185943D01*
X0429678Y0186027D01*
X0429545Y0186113D01*
X0429415Y0186203D01*
X0429287Y0186296D01*
X0429161Y0186392D01*
X0429038Y0186492D01*
X0428917Y0186594D01*
X0428799Y0186699D01*
X0428684Y0186808D01*
X0428571Y0186919D01*
X0428461Y0187033D01*
X0428354Y0187150D01*
X0428250Y0187269D01*
X0428149Y0187391D01*
X0428052Y0187516D01*
X0427957Y0187643D01*
X0427866Y0187772D01*
X0427777Y0187903D01*
X0427693Y0188037D01*
X0427611Y0188173D01*
X0427533Y0188310D01*
X0427459Y0188450D01*
X0427388Y0188592D01*
X0427320Y0188735D01*
X0427256Y0188880D01*
X0427196Y0189026D01*
X0427140Y0189174D01*
X0427087Y0189323D01*
X0427038Y0189474D01*
X0426993Y0189626D01*
X0426952Y0189779D01*
X0426914Y0189932D01*
X0426881Y0190087D01*
X0426851Y0190243D01*
X0426825Y0190399D01*
X0426804Y0190556D01*
X0426786Y0190713D01*
X0426772Y0190871D01*
X0426762Y0191029D01*
X0426756Y0191187D01*
X0426754Y0191345D01*
X0427058Y0335517D02*
X0427060Y0335675D01*
X0427066Y0335833D01*
X0427076Y0335991D01*
X0427090Y0336149D01*
X0427108Y0336306D01*
X0427129Y0336463D01*
X0427155Y0336619D01*
X0427185Y0336775D01*
X0427218Y0336930D01*
X0427256Y0337083D01*
X0427297Y0337236D01*
X0427342Y0337388D01*
X0427391Y0337539D01*
X0427444Y0337688D01*
X0427500Y0337836D01*
X0427560Y0337982D01*
X0427624Y0338127D01*
X0427692Y0338270D01*
X0427763Y0338412D01*
X0427837Y0338552D01*
X0427915Y0338689D01*
X0427997Y0338825D01*
X0428081Y0338959D01*
X0428170Y0339090D01*
X0428261Y0339219D01*
X0428356Y0339346D01*
X0428453Y0339471D01*
X0428554Y0339593D01*
X0428658Y0339712D01*
X0428765Y0339829D01*
X0428875Y0339943D01*
X0428988Y0340054D01*
X0429103Y0340163D01*
X0429221Y0340268D01*
X0429342Y0340370D01*
X0429465Y0340470D01*
X0429591Y0340566D01*
X0429719Y0340659D01*
X0429849Y0340749D01*
X0429982Y0340835D01*
X0430117Y0340919D01*
X0430253Y0340998D01*
X0430392Y0341075D01*
X0430533Y0341147D01*
X0430675Y0341217D01*
X0430819Y0341282D01*
X0430965Y0341344D01*
X0431112Y0341402D01*
X0431261Y0341457D01*
X0431411Y0341508D01*
X0431562Y0341555D01*
X0431714Y0341598D01*
X0431867Y0341637D01*
X0432022Y0341673D01*
X0432177Y0341704D01*
X0432333Y0341732D01*
X0432489Y0341756D01*
X0432646Y0341776D01*
X0432804Y0341792D01*
X0432961Y0341804D01*
X0433120Y0341812D01*
X0433278Y0341816D01*
X0433436Y0341816D01*
X0433594Y0341812D01*
X0433753Y0341804D01*
X0433910Y0341792D01*
X0434068Y0341776D01*
X0434225Y0341756D01*
X0434381Y0341732D01*
X0434537Y0341704D01*
X0434692Y0341673D01*
X0434847Y0341637D01*
X0435000Y0341598D01*
X0435152Y0341555D01*
X0435303Y0341508D01*
X0435453Y0341457D01*
X0435602Y0341402D01*
X0435749Y0341344D01*
X0435895Y0341282D01*
X0436039Y0341217D01*
X0436181Y0341147D01*
X0436322Y0341075D01*
X0436461Y0340998D01*
X0436597Y0340919D01*
X0436732Y0340835D01*
X0436865Y0340749D01*
X0436995Y0340659D01*
X0437123Y0340566D01*
X0437249Y0340470D01*
X0437372Y0340370D01*
X0437493Y0340268D01*
X0437611Y0340163D01*
X0437726Y0340054D01*
X0437839Y0339943D01*
X0437949Y0339829D01*
X0438056Y0339712D01*
X0438160Y0339593D01*
X0438261Y0339471D01*
X0438358Y0339346D01*
X0438453Y0339219D01*
X0438544Y0339090D01*
X0438633Y0338959D01*
X0438717Y0338825D01*
X0438799Y0338689D01*
X0438877Y0338552D01*
X0438951Y0338412D01*
X0439022Y0338270D01*
X0439090Y0338127D01*
X0439154Y0337982D01*
X0439214Y0337836D01*
X0439270Y0337688D01*
X0439323Y0337539D01*
X0439372Y0337388D01*
X0439417Y0337236D01*
X0439458Y0337083D01*
X0439496Y0336930D01*
X0439529Y0336775D01*
X0439559Y0336619D01*
X0439585Y0336463D01*
X0439606Y0336306D01*
X0439624Y0336149D01*
X0439638Y0335991D01*
X0439648Y0335833D01*
X0439654Y0335675D01*
X0439656Y0335517D01*
X0439654Y0335359D01*
X0439648Y0335201D01*
X0439638Y0335043D01*
X0439624Y0334885D01*
X0439606Y0334728D01*
X0439585Y0334571D01*
X0439559Y0334415D01*
X0439529Y0334259D01*
X0439496Y0334104D01*
X0439458Y0333951D01*
X0439417Y0333798D01*
X0439372Y0333646D01*
X0439323Y0333495D01*
X0439270Y0333346D01*
X0439214Y0333198D01*
X0439154Y0333052D01*
X0439090Y0332907D01*
X0439022Y0332764D01*
X0438951Y0332622D01*
X0438877Y0332482D01*
X0438799Y0332345D01*
X0438717Y0332209D01*
X0438633Y0332075D01*
X0438544Y0331944D01*
X0438453Y0331815D01*
X0438358Y0331688D01*
X0438261Y0331563D01*
X0438160Y0331441D01*
X0438056Y0331322D01*
X0437949Y0331205D01*
X0437839Y0331091D01*
X0437726Y0330980D01*
X0437611Y0330871D01*
X0437493Y0330766D01*
X0437372Y0330664D01*
X0437249Y0330564D01*
X0437123Y0330468D01*
X0436995Y0330375D01*
X0436865Y0330285D01*
X0436732Y0330199D01*
X0436597Y0330115D01*
X0436461Y0330036D01*
X0436322Y0329959D01*
X0436181Y0329887D01*
X0436039Y0329817D01*
X0435895Y0329752D01*
X0435749Y0329690D01*
X0435602Y0329632D01*
X0435453Y0329577D01*
X0435303Y0329526D01*
X0435152Y0329479D01*
X0435000Y0329436D01*
X0434847Y0329397D01*
X0434692Y0329361D01*
X0434537Y0329330D01*
X0434381Y0329302D01*
X0434225Y0329278D01*
X0434068Y0329258D01*
X0433910Y0329242D01*
X0433753Y0329230D01*
X0433594Y0329222D01*
X0433436Y0329218D01*
X0433278Y0329218D01*
X0433120Y0329222D01*
X0432961Y0329230D01*
X0432804Y0329242D01*
X0432646Y0329258D01*
X0432489Y0329278D01*
X0432333Y0329302D01*
X0432177Y0329330D01*
X0432022Y0329361D01*
X0431867Y0329397D01*
X0431714Y0329436D01*
X0431562Y0329479D01*
X0431411Y0329526D01*
X0431261Y0329577D01*
X0431112Y0329632D01*
X0430965Y0329690D01*
X0430819Y0329752D01*
X0430675Y0329817D01*
X0430533Y0329887D01*
X0430392Y0329959D01*
X0430253Y0330036D01*
X0430117Y0330115D01*
X0429982Y0330199D01*
X0429849Y0330285D01*
X0429719Y0330375D01*
X0429591Y0330468D01*
X0429465Y0330564D01*
X0429342Y0330664D01*
X0429221Y0330766D01*
X0429103Y0330871D01*
X0428988Y0330980D01*
X0428875Y0331091D01*
X0428765Y0331205D01*
X0428658Y0331322D01*
X0428554Y0331441D01*
X0428453Y0331563D01*
X0428356Y0331688D01*
X0428261Y0331815D01*
X0428170Y0331944D01*
X0428081Y0332075D01*
X0427997Y0332209D01*
X0427915Y0332345D01*
X0427837Y0332482D01*
X0427763Y0332622D01*
X0427692Y0332764D01*
X0427624Y0332907D01*
X0427560Y0333052D01*
X0427500Y0333198D01*
X0427444Y0333346D01*
X0427391Y0333495D01*
X0427342Y0333646D01*
X0427297Y0333798D01*
X0427256Y0333951D01*
X0427218Y0334104D01*
X0427185Y0334259D01*
X0427155Y0334415D01*
X0427129Y0334571D01*
X0427108Y0334728D01*
X0427090Y0334885D01*
X0427076Y0335043D01*
X0427066Y0335201D01*
X0427060Y0335359D01*
X0427058Y0335517D01*
X0247201Y0368500D02*
X0247203Y0368658D01*
X0247209Y0368816D01*
X0247219Y0368974D01*
X0247233Y0369132D01*
X0247251Y0369289D01*
X0247272Y0369446D01*
X0247298Y0369602D01*
X0247328Y0369758D01*
X0247361Y0369913D01*
X0247399Y0370066D01*
X0247440Y0370219D01*
X0247485Y0370371D01*
X0247534Y0370522D01*
X0247587Y0370671D01*
X0247643Y0370819D01*
X0247703Y0370965D01*
X0247767Y0371110D01*
X0247835Y0371253D01*
X0247906Y0371395D01*
X0247980Y0371535D01*
X0248058Y0371672D01*
X0248140Y0371808D01*
X0248224Y0371942D01*
X0248313Y0372073D01*
X0248404Y0372202D01*
X0248499Y0372329D01*
X0248596Y0372454D01*
X0248697Y0372576D01*
X0248801Y0372695D01*
X0248908Y0372812D01*
X0249018Y0372926D01*
X0249131Y0373037D01*
X0249246Y0373146D01*
X0249364Y0373251D01*
X0249485Y0373353D01*
X0249608Y0373453D01*
X0249734Y0373549D01*
X0249862Y0373642D01*
X0249992Y0373732D01*
X0250125Y0373818D01*
X0250260Y0373902D01*
X0250396Y0373981D01*
X0250535Y0374058D01*
X0250676Y0374130D01*
X0250818Y0374200D01*
X0250962Y0374265D01*
X0251108Y0374327D01*
X0251255Y0374385D01*
X0251404Y0374440D01*
X0251554Y0374491D01*
X0251705Y0374538D01*
X0251857Y0374581D01*
X0252010Y0374620D01*
X0252165Y0374656D01*
X0252320Y0374687D01*
X0252476Y0374715D01*
X0252632Y0374739D01*
X0252789Y0374759D01*
X0252947Y0374775D01*
X0253104Y0374787D01*
X0253263Y0374795D01*
X0253421Y0374799D01*
X0253579Y0374799D01*
X0253737Y0374795D01*
X0253896Y0374787D01*
X0254053Y0374775D01*
X0254211Y0374759D01*
X0254368Y0374739D01*
X0254524Y0374715D01*
X0254680Y0374687D01*
X0254835Y0374656D01*
X0254990Y0374620D01*
X0255143Y0374581D01*
X0255295Y0374538D01*
X0255446Y0374491D01*
X0255596Y0374440D01*
X0255745Y0374385D01*
X0255892Y0374327D01*
X0256038Y0374265D01*
X0256182Y0374200D01*
X0256324Y0374130D01*
X0256465Y0374058D01*
X0256604Y0373981D01*
X0256740Y0373902D01*
X0256875Y0373818D01*
X0257008Y0373732D01*
X0257138Y0373642D01*
X0257266Y0373549D01*
X0257392Y0373453D01*
X0257515Y0373353D01*
X0257636Y0373251D01*
X0257754Y0373146D01*
X0257869Y0373037D01*
X0257982Y0372926D01*
X0258092Y0372812D01*
X0258199Y0372695D01*
X0258303Y0372576D01*
X0258404Y0372454D01*
X0258501Y0372329D01*
X0258596Y0372202D01*
X0258687Y0372073D01*
X0258776Y0371942D01*
X0258860Y0371808D01*
X0258942Y0371672D01*
X0259020Y0371535D01*
X0259094Y0371395D01*
X0259165Y0371253D01*
X0259233Y0371110D01*
X0259297Y0370965D01*
X0259357Y0370819D01*
X0259413Y0370671D01*
X0259466Y0370522D01*
X0259515Y0370371D01*
X0259560Y0370219D01*
X0259601Y0370066D01*
X0259639Y0369913D01*
X0259672Y0369758D01*
X0259702Y0369602D01*
X0259728Y0369446D01*
X0259749Y0369289D01*
X0259767Y0369132D01*
X0259781Y0368974D01*
X0259791Y0368816D01*
X0259797Y0368658D01*
X0259799Y0368500D01*
X0259797Y0368342D01*
X0259791Y0368184D01*
X0259781Y0368026D01*
X0259767Y0367868D01*
X0259749Y0367711D01*
X0259728Y0367554D01*
X0259702Y0367398D01*
X0259672Y0367242D01*
X0259639Y0367087D01*
X0259601Y0366934D01*
X0259560Y0366781D01*
X0259515Y0366629D01*
X0259466Y0366478D01*
X0259413Y0366329D01*
X0259357Y0366181D01*
X0259297Y0366035D01*
X0259233Y0365890D01*
X0259165Y0365747D01*
X0259094Y0365605D01*
X0259020Y0365465D01*
X0258942Y0365328D01*
X0258860Y0365192D01*
X0258776Y0365058D01*
X0258687Y0364927D01*
X0258596Y0364798D01*
X0258501Y0364671D01*
X0258404Y0364546D01*
X0258303Y0364424D01*
X0258199Y0364305D01*
X0258092Y0364188D01*
X0257982Y0364074D01*
X0257869Y0363963D01*
X0257754Y0363854D01*
X0257636Y0363749D01*
X0257515Y0363647D01*
X0257392Y0363547D01*
X0257266Y0363451D01*
X0257138Y0363358D01*
X0257008Y0363268D01*
X0256875Y0363182D01*
X0256740Y0363098D01*
X0256604Y0363019D01*
X0256465Y0362942D01*
X0256324Y0362870D01*
X0256182Y0362800D01*
X0256038Y0362735D01*
X0255892Y0362673D01*
X0255745Y0362615D01*
X0255596Y0362560D01*
X0255446Y0362509D01*
X0255295Y0362462D01*
X0255143Y0362419D01*
X0254990Y0362380D01*
X0254835Y0362344D01*
X0254680Y0362313D01*
X0254524Y0362285D01*
X0254368Y0362261D01*
X0254211Y0362241D01*
X0254053Y0362225D01*
X0253896Y0362213D01*
X0253737Y0362205D01*
X0253579Y0362201D01*
X0253421Y0362201D01*
X0253263Y0362205D01*
X0253104Y0362213D01*
X0252947Y0362225D01*
X0252789Y0362241D01*
X0252632Y0362261D01*
X0252476Y0362285D01*
X0252320Y0362313D01*
X0252165Y0362344D01*
X0252010Y0362380D01*
X0251857Y0362419D01*
X0251705Y0362462D01*
X0251554Y0362509D01*
X0251404Y0362560D01*
X0251255Y0362615D01*
X0251108Y0362673D01*
X0250962Y0362735D01*
X0250818Y0362800D01*
X0250676Y0362870D01*
X0250535Y0362942D01*
X0250396Y0363019D01*
X0250260Y0363098D01*
X0250125Y0363182D01*
X0249992Y0363268D01*
X0249862Y0363358D01*
X0249734Y0363451D01*
X0249608Y0363547D01*
X0249485Y0363647D01*
X0249364Y0363749D01*
X0249246Y0363854D01*
X0249131Y0363963D01*
X0249018Y0364074D01*
X0248908Y0364188D01*
X0248801Y0364305D01*
X0248697Y0364424D01*
X0248596Y0364546D01*
X0248499Y0364671D01*
X0248404Y0364798D01*
X0248313Y0364927D01*
X0248224Y0365058D01*
X0248140Y0365192D01*
X0248058Y0365328D01*
X0247980Y0365465D01*
X0247906Y0365605D01*
X0247835Y0365747D01*
X0247767Y0365890D01*
X0247703Y0366035D01*
X0247643Y0366181D01*
X0247587Y0366329D01*
X0247534Y0366478D01*
X0247485Y0366629D01*
X0247440Y0366781D01*
X0247399Y0366934D01*
X0247361Y0367087D01*
X0247328Y0367242D01*
X0247298Y0367398D01*
X0247272Y0367554D01*
X0247251Y0367711D01*
X0247233Y0367868D01*
X0247219Y0368026D01*
X0247209Y0368184D01*
X0247203Y0368342D01*
X0247201Y0368500D01*
D11*
X0308500Y0356000D03*
X0308500Y0346000D03*
X0341000Y0323500D03*
X0341000Y0313500D03*
X0341000Y0301000D03*
X0341000Y0291000D03*
X0328710Y0302684D03*
X0318710Y0302684D03*
X0288500Y0273500D03*
X0278500Y0273500D03*
X0296141Y0256327D03*
X0296141Y0246327D03*
X0350268Y0257936D03*
X0360268Y0257936D03*
X0413159Y0257366D03*
X0423159Y0257366D03*
D12*
X0297890Y0290035D03*
X0297890Y0303421D03*
X0297890Y0316807D03*
X0297890Y0330193D03*
X0297890Y0343579D03*
X0297890Y0356965D03*
X0277890Y0350272D03*
X0277890Y0336886D03*
X0277890Y0323500D03*
X0277890Y0310114D03*
X0277890Y0296728D03*
D13*
X0398579Y0345700D03*
X0398579Y0353500D03*
X0408421Y0353500D03*
X0408421Y0345700D03*
D14*
X0427200Y0364200D03*
X0379800Y0364200D03*
D15*
X0334858Y0246463D03*
X0325252Y0246463D03*
X0315858Y0246463D03*
D16*
X0311147Y0270835D03*
X0329865Y0280304D03*
X0341147Y0270835D03*
X0350320Y0272561D03*
X0359865Y0280304D03*
X0380320Y0272561D03*
X0402271Y0247270D03*
X0387682Y0238158D03*
X0379651Y0238349D03*
X0349651Y0238349D03*
X0283500Y0208500D03*
X0253500Y0208500D03*
X0417682Y0238158D03*
X0432271Y0247270D03*
D17*
X0423500Y0231100D02*
X0423500Y0225900D01*
X0413500Y0225900D02*
X0413500Y0231100D01*
X0403500Y0231100D02*
X0403500Y0225900D01*
X0393500Y0225900D02*
X0393500Y0231100D01*
X0383500Y0231100D02*
X0383500Y0225900D01*
X0373500Y0225900D02*
X0373500Y0231100D01*
X0363500Y0231100D02*
X0363500Y0225900D01*
X0353500Y0225900D02*
X0353500Y0231100D01*
X0343500Y0231100D02*
X0343500Y0225900D01*
X0333500Y0225900D02*
X0333500Y0231100D01*
X0323500Y0231100D02*
X0323500Y0225900D01*
X0313500Y0225900D02*
X0313500Y0231100D01*
X0303500Y0231100D02*
X0303500Y0225900D01*
X0293500Y0225900D02*
X0293500Y0231100D01*
X0293500Y0201100D02*
X0293500Y0195900D01*
X0303500Y0195900D02*
X0303500Y0201100D01*
X0313500Y0201100D02*
X0313500Y0195900D01*
X0323500Y0195900D02*
X0323500Y0201100D01*
X0333500Y0201100D02*
X0333500Y0195900D01*
X0343500Y0195900D02*
X0343500Y0201100D01*
X0353500Y0201100D02*
X0353500Y0195900D01*
X0363500Y0195900D02*
X0363500Y0201100D01*
X0373500Y0201100D02*
X0373500Y0195900D01*
X0383500Y0195900D02*
X0383500Y0201100D01*
X0393500Y0201100D02*
X0393500Y0195900D01*
X0403500Y0195900D02*
X0403500Y0201100D01*
X0413500Y0201100D02*
X0413500Y0195900D01*
X0423500Y0195900D02*
X0423500Y0201100D01*
X0420900Y0268500D02*
X0426100Y0268500D01*
X0426100Y0278500D02*
X0420900Y0278500D01*
X0420900Y0288500D02*
X0426100Y0288500D01*
X0426100Y0298500D02*
X0420900Y0298500D01*
X0420900Y0308500D02*
X0426100Y0308500D01*
X0426100Y0318500D02*
X0420900Y0318500D01*
X0420900Y0328500D02*
X0426100Y0328500D01*
X0396100Y0328500D02*
X0390900Y0328500D01*
X0390900Y0318500D02*
X0396100Y0318500D01*
X0396100Y0308500D02*
X0390900Y0308500D01*
X0390900Y0298500D02*
X0396100Y0298500D01*
X0396100Y0288500D02*
X0390900Y0288500D01*
X0390900Y0278500D02*
X0396100Y0278500D01*
X0396100Y0268500D02*
X0390900Y0268500D01*
X0379634Y0287731D02*
X0379634Y0292931D01*
X0369634Y0292931D02*
X0369634Y0287731D01*
X0359634Y0287731D02*
X0359634Y0292931D01*
X0359634Y0322931D02*
X0359634Y0328131D01*
X0369634Y0328131D02*
X0369634Y0322931D01*
X0379634Y0322931D02*
X0379634Y0328131D01*
D18*
X0353500Y0339563D03*
X0334996Y0351374D03*
X0353500Y0363185D03*
D19*
X0262223Y0248836D02*
X0252853Y0248836D01*
X0252853Y0229151D02*
X0262223Y0229151D01*
D20*
X0374120Y0246215D03*
X0374120Y0256215D03*
D21*
X0321951Y0285768D03*
X0314451Y0290768D03*
X0314451Y0280768D03*
X0317919Y0328710D03*
X0312919Y0336210D03*
X0307919Y0328710D03*
D22*
X0304678Y0324832D01*
X0304402Y0316636D01*
X0297890Y0303500D02*
X0297890Y0303421D01*
X0297890Y0303500D02*
X0288500Y0303500D01*
X0288500Y0282373D01*
X0296133Y0282373D01*
X0311147Y0270835D02*
X0314451Y0270835D01*
X0314451Y0280768D01*
X0321951Y0285768D02*
X0329865Y0280304D01*
X0341147Y0283500D02*
X0341147Y0270835D01*
X0348481Y0272561D02*
X0348481Y0265249D01*
X0380739Y0265058D01*
X0379651Y0238349D01*
X0398500Y0238500D02*
X0383214Y0272457D01*
X0380320Y0272561D01*
X0369634Y0272561D01*
X0369634Y0292931D01*
X0379634Y0298500D02*
X0348500Y0298500D01*
X0348500Y0283500D01*
X0341147Y0283500D01*
X0348481Y0272561D02*
X0350320Y0272561D01*
X0348481Y0265249D02*
X0347427Y0265256D01*
X0379634Y0298500D02*
X0379634Y0322931D01*
X0348750Y0307515D02*
X0335415Y0307515D01*
X0323954Y0328767D02*
X0317919Y0328710D01*
X0323954Y0328767D02*
X0323954Y0331778D01*
X0308500Y0346000D02*
X0308500Y0348500D01*
X0303500Y0348500D01*
X0303500Y0350272D01*
X0277890Y0350272D01*
X0283500Y0263500D02*
X0268500Y0263500D01*
X0283500Y0263500D02*
X0283500Y0208500D01*
X0373500Y0208500D01*
X0373500Y0198500D01*
X0413500Y0228500D02*
X0408500Y0238500D01*
X0398500Y0238500D01*
D23*
X0390761Y0244242D02*
X0389034Y0244958D01*
X0386329Y0244958D01*
X0384595Y0244239D01*
X0385107Y0256802D01*
X0390761Y0244242D01*
X0388869Y0248445D02*
X0384766Y0248445D01*
X0384970Y0253443D02*
X0386619Y0253443D01*
X0394677Y0258442D02*
X0397438Y0258442D01*
X0397234Y0262800D02*
X0392716Y0262800D01*
X0397298Y0252620D01*
X0397545Y0262929D01*
X0397234Y0262800D01*
X0397318Y0253443D02*
X0396927Y0253443D01*
X0407520Y0253443D02*
X0408101Y0253443D01*
X0407775Y0253769D02*
X0407542Y0254333D01*
X0407478Y0251680D01*
X0408036Y0251122D01*
X0409071Y0248623D01*
X0409071Y0245918D01*
X0408036Y0243418D01*
X0407817Y0243200D01*
X0408333Y0243200D01*
X0409099Y0243254D01*
X0409263Y0243200D01*
X0409435Y0243200D01*
X0410144Y0242906D01*
X0410873Y0242663D01*
X0411003Y0242550D01*
X0411162Y0242484D01*
X0411705Y0241941D01*
X0411840Y0241825D01*
X0411917Y0242010D01*
X0413830Y0243922D01*
X0416329Y0244958D01*
X0419034Y0244958D01*
X0421533Y0243922D01*
X0423446Y0242010D01*
X0424482Y0239510D01*
X0424482Y0236805D01*
X0424479Y0236800D01*
X0424634Y0236800D01*
X0426729Y0235932D01*
X0428332Y0234329D01*
X0429200Y0232234D01*
X0429200Y0224766D01*
X0428332Y0222671D01*
X0426729Y0221068D01*
X0424634Y0220200D01*
X0422366Y0220200D01*
X0420271Y0221068D01*
X0418668Y0222671D01*
X0418500Y0223076D01*
X0418332Y0222671D01*
X0416729Y0221068D01*
X0414634Y0220200D01*
X0412366Y0220200D01*
X0410271Y0221068D01*
X0408668Y0222671D01*
X0408500Y0223076D01*
X0408332Y0222671D01*
X0406729Y0221068D01*
X0404634Y0220200D01*
X0402366Y0220200D01*
X0400271Y0221068D01*
X0398668Y0222671D01*
X0398500Y0223076D01*
X0398332Y0222671D01*
X0396729Y0221068D01*
X0394634Y0220200D01*
X0392366Y0220200D01*
X0390271Y0221068D01*
X0388668Y0222671D01*
X0388500Y0223076D01*
X0388332Y0222671D01*
X0386729Y0221068D01*
X0384634Y0220200D01*
X0382366Y0220200D01*
X0380271Y0221068D01*
X0378668Y0222671D01*
X0378500Y0223076D01*
X0378332Y0222671D01*
X0376729Y0221068D01*
X0374634Y0220200D01*
X0372366Y0220200D01*
X0370271Y0221068D01*
X0368668Y0222671D01*
X0368500Y0223076D01*
X0368332Y0222671D01*
X0366729Y0221068D01*
X0364634Y0220200D01*
X0362366Y0220200D01*
X0360271Y0221068D01*
X0358683Y0222656D01*
X0358153Y0221926D01*
X0357474Y0221247D01*
X0356697Y0220683D01*
X0355842Y0220247D01*
X0354928Y0219950D01*
X0353980Y0219800D01*
X0353500Y0219800D01*
X0353500Y0228500D01*
X0353500Y0228500D01*
X0353500Y0219800D01*
X0353020Y0219800D01*
X0352072Y0219950D01*
X0351158Y0220247D01*
X0350303Y0220683D01*
X0349526Y0221247D01*
X0348847Y0221926D01*
X0348317Y0222656D01*
X0346729Y0221068D01*
X0344634Y0220200D01*
X0342366Y0220200D01*
X0340271Y0221068D01*
X0338668Y0222671D01*
X0338500Y0223076D01*
X0338332Y0222671D01*
X0336729Y0221068D01*
X0334634Y0220200D01*
X0332366Y0220200D01*
X0330271Y0221068D01*
X0328668Y0222671D01*
X0328500Y0223076D01*
X0328332Y0222671D01*
X0326729Y0221068D01*
X0324634Y0220200D01*
X0322366Y0220200D01*
X0320271Y0221068D01*
X0318668Y0222671D01*
X0318500Y0223076D01*
X0318332Y0222671D01*
X0316729Y0221068D01*
X0314634Y0220200D01*
X0312366Y0220200D01*
X0310271Y0221068D01*
X0308668Y0222671D01*
X0308500Y0223076D01*
X0308332Y0222671D01*
X0306729Y0221068D01*
X0304634Y0220200D01*
X0302366Y0220200D01*
X0300271Y0221068D01*
X0298668Y0222671D01*
X0298500Y0223076D01*
X0298332Y0222671D01*
X0296729Y0221068D01*
X0294634Y0220200D01*
X0292366Y0220200D01*
X0290271Y0221068D01*
X0288668Y0222671D01*
X0288200Y0223801D01*
X0288200Y0213417D01*
X0288417Y0213200D01*
X0374435Y0213200D01*
X0376162Y0212484D01*
X0377484Y0211162D01*
X0378200Y0209435D01*
X0378200Y0204461D01*
X0378332Y0204329D01*
X0378500Y0203924D01*
X0378668Y0204329D01*
X0380271Y0205932D01*
X0382366Y0206800D01*
X0384634Y0206800D01*
X0386729Y0205932D01*
X0388332Y0204329D01*
X0388500Y0203924D01*
X0388668Y0204329D01*
X0390271Y0205932D01*
X0392366Y0206800D01*
X0394634Y0206800D01*
X0396729Y0205932D01*
X0398332Y0204329D01*
X0398500Y0203924D01*
X0398668Y0204329D01*
X0400271Y0205932D01*
X0402366Y0206800D01*
X0404634Y0206800D01*
X0406729Y0205932D01*
X0408332Y0204329D01*
X0408500Y0203924D01*
X0408668Y0204329D01*
X0410271Y0205932D01*
X0412366Y0206800D01*
X0414634Y0206800D01*
X0416729Y0205932D01*
X0418332Y0204329D01*
X0418500Y0203924D01*
X0418668Y0204329D01*
X0420271Y0205932D01*
X0422366Y0206800D01*
X0424634Y0206800D01*
X0426729Y0205932D01*
X0428332Y0204329D01*
X0429200Y0202234D01*
X0429200Y0200355D01*
X0431104Y0201144D01*
X0435002Y0201144D01*
X0436850Y0200379D01*
X0436850Y0242233D01*
X0436123Y0241506D01*
X0433624Y0240470D01*
X0430918Y0240470D01*
X0428419Y0241506D01*
X0426506Y0243418D01*
X0425471Y0245918D01*
X0425471Y0248623D01*
X0426506Y0251122D01*
X0428419Y0253035D01*
X0429300Y0253400D01*
X0428173Y0253400D01*
X0426756Y0251983D01*
X0424422Y0251016D01*
X0421895Y0251016D01*
X0419562Y0251983D01*
X0418159Y0253386D01*
X0416756Y0251983D01*
X0414422Y0251016D01*
X0411895Y0251016D01*
X0409562Y0251983D01*
X0407775Y0253769D01*
X0409071Y0248445D02*
X0425471Y0248445D01*
X0426495Y0243446D02*
X0422009Y0243446D01*
X0424482Y0238448D02*
X0436850Y0238448D01*
X0436850Y0233449D02*
X0428696Y0233449D01*
X0429200Y0228451D02*
X0436850Y0228451D01*
X0436850Y0223452D02*
X0428656Y0223452D01*
X0436850Y0218454D02*
X0288200Y0218454D01*
X0288200Y0223452D02*
X0288344Y0223452D01*
X0278800Y0223452D02*
X0267535Y0223452D01*
X0266633Y0222551D02*
X0268823Y0224741D01*
X0270008Y0227602D01*
X0270008Y0230699D01*
X0268823Y0233560D01*
X0266633Y0235750D01*
X0263772Y0236936D01*
X0251305Y0236936D01*
X0248443Y0235750D01*
X0247000Y0234307D01*
X0247000Y0243679D01*
X0248443Y0242236D01*
X0251305Y0241051D01*
X0263772Y0241051D01*
X0266633Y0242236D01*
X0268823Y0244426D01*
X0270008Y0247287D01*
X0270008Y0250384D01*
X0268823Y0253245D01*
X0266633Y0255435D01*
X0263772Y0256621D01*
X0251305Y0256621D01*
X0248443Y0255435D01*
X0247000Y0253992D01*
X0247000Y0361142D01*
X0247949Y0360193D01*
X0251551Y0358701D01*
X0255449Y0358701D01*
X0259051Y0360193D01*
X0261100Y0362242D01*
X0261100Y0333012D01*
X0258931Y0330843D01*
X0257357Y0328116D01*
X0256542Y0325074D01*
X0256542Y0321926D01*
X0257357Y0318884D01*
X0258931Y0316157D01*
X0261157Y0313931D01*
X0263884Y0312357D01*
X0266926Y0311542D01*
X0271025Y0311542D01*
X0271010Y0311483D01*
X0270890Y0310573D01*
X0270890Y0310114D01*
X0270890Y0309655D01*
X0271010Y0308746D01*
X0271247Y0307859D01*
X0271598Y0307012D01*
X0272057Y0306217D01*
X0272616Y0305489D01*
X0273264Y0304840D01*
X0273992Y0304281D01*
X0274787Y0303823D01*
X0275635Y0303471D01*
X0276417Y0303262D01*
X0274151Y0302324D01*
X0272295Y0300467D01*
X0271290Y0298041D01*
X0271290Y0295416D01*
X0272295Y0292990D01*
X0274151Y0291133D01*
X0276577Y0290128D01*
X0279203Y0290128D01*
X0281628Y0291133D01*
X0283485Y0292990D01*
X0283800Y0293750D01*
X0283800Y0281438D01*
X0284516Y0279711D01*
X0285214Y0279012D01*
X0284903Y0278883D01*
X0283500Y0277480D01*
X0282097Y0278883D01*
X0279763Y0279850D01*
X0277237Y0279850D01*
X0274903Y0278883D01*
X0273117Y0277097D01*
X0272150Y0274763D01*
X0272150Y0272237D01*
X0273117Y0269903D01*
X0274820Y0268200D01*
X0271335Y0268200D01*
X0270898Y0268381D01*
X0266102Y0268381D01*
X0264963Y0267909D01*
X0264091Y0267037D01*
X0263619Y0265898D01*
X0263619Y0261102D01*
X0264091Y0259963D01*
X0264963Y0259091D01*
X0266102Y0258619D01*
X0270898Y0258619D01*
X0271335Y0258800D01*
X0278800Y0258800D01*
X0278800Y0213417D01*
X0277735Y0212352D01*
X0276700Y0209853D01*
X0276700Y0207147D01*
X0277735Y0204648D01*
X0279648Y0202735D01*
X0282147Y0201700D01*
X0284853Y0201700D01*
X0287352Y0202735D01*
X0288417Y0203800D01*
X0288449Y0203800D01*
X0287800Y0202234D01*
X0287800Y0194766D01*
X0288668Y0192671D01*
X0290271Y0191068D01*
X0292366Y0190200D01*
X0294634Y0190200D01*
X0296729Y0191068D01*
X0298332Y0192671D01*
X0298500Y0193076D01*
X0298668Y0192671D01*
X0300271Y0191068D01*
X0302366Y0190200D01*
X0304634Y0190200D01*
X0306729Y0191068D01*
X0308332Y0192671D01*
X0308500Y0193076D01*
X0308668Y0192671D01*
X0310271Y0191068D01*
X0312366Y0190200D01*
X0314634Y0190200D01*
X0316729Y0191068D01*
X0318332Y0192671D01*
X0318500Y0193076D01*
X0318668Y0192671D01*
X0320271Y0191068D01*
X0322366Y0190200D01*
X0324634Y0190200D01*
X0326729Y0191068D01*
X0328332Y0192671D01*
X0328500Y0193076D01*
X0328668Y0192671D01*
X0330271Y0191068D01*
X0332366Y0190200D01*
X0334634Y0190200D01*
X0336729Y0191068D01*
X0338332Y0192671D01*
X0338500Y0193076D01*
X0338668Y0192671D01*
X0340271Y0191068D01*
X0342366Y0190200D01*
X0344634Y0190200D01*
X0346729Y0191068D01*
X0348332Y0192671D01*
X0348500Y0193076D01*
X0348668Y0192671D01*
X0350271Y0191068D01*
X0352366Y0190200D01*
X0354634Y0190200D01*
X0356729Y0191068D01*
X0358317Y0192656D01*
X0358847Y0191926D01*
X0359526Y0191247D01*
X0360303Y0190683D01*
X0361158Y0190247D01*
X0362072Y0189950D01*
X0363020Y0189800D01*
X0363500Y0189800D01*
X0363980Y0189800D01*
X0364928Y0189950D01*
X0365842Y0190247D01*
X0366697Y0190683D01*
X0367474Y0191247D01*
X0368153Y0191926D01*
X0368683Y0192656D01*
X0370271Y0191068D01*
X0372366Y0190200D01*
X0374634Y0190200D01*
X0376729Y0191068D01*
X0378332Y0192671D01*
X0378500Y0193076D01*
X0378668Y0192671D01*
X0380271Y0191068D01*
X0382366Y0190200D01*
X0384634Y0190200D01*
X0386729Y0191068D01*
X0388332Y0192671D01*
X0388500Y0193076D01*
X0388668Y0192671D01*
X0390271Y0191068D01*
X0392366Y0190200D01*
X0394634Y0190200D01*
X0396729Y0191068D01*
X0398332Y0192671D01*
X0398500Y0193076D01*
X0398668Y0192671D01*
X0400271Y0191068D01*
X0402366Y0190200D01*
X0404634Y0190200D01*
X0406729Y0191068D01*
X0408332Y0192671D01*
X0408500Y0193076D01*
X0408668Y0192671D01*
X0410271Y0191068D01*
X0412366Y0190200D01*
X0414634Y0190200D01*
X0416729Y0191068D01*
X0418332Y0192671D01*
X0418500Y0193076D01*
X0418668Y0192671D01*
X0420271Y0191068D01*
X0422366Y0190200D01*
X0423254Y0190200D01*
X0423254Y0189396D01*
X0424246Y0187000D01*
X0260858Y0187000D01*
X0261807Y0187949D01*
X0263299Y0191551D01*
X0263299Y0195449D01*
X0261807Y0199051D01*
X0259051Y0201807D01*
X0257454Y0202469D01*
X0257509Y0202501D01*
X0258257Y0203075D01*
X0258925Y0203743D01*
X0259499Y0204491D01*
X0259971Y0205309D01*
X0260333Y0206181D01*
X0260577Y0207092D01*
X0260700Y0208028D01*
X0260700Y0208500D01*
X0260700Y0208972D01*
X0260577Y0209908D01*
X0260333Y0210819D01*
X0259971Y0211691D01*
X0259499Y0212509D01*
X0258925Y0213257D01*
X0258257Y0213925D01*
X0257509Y0214499D01*
X0256691Y0214971D01*
X0255819Y0215333D01*
X0254908Y0215577D01*
X0253972Y0215700D01*
X0253500Y0215700D01*
X0253500Y0208500D01*
X0253500Y0208500D01*
X0260700Y0208500D01*
X0253500Y0208500D01*
X0253500Y0208500D01*
X0253500Y0215700D01*
X0253028Y0215700D01*
X0252092Y0215577D01*
X0251181Y0215333D01*
X0250309Y0214971D01*
X0249491Y0214499D01*
X0248743Y0213925D01*
X0248075Y0213257D01*
X0247501Y0212509D01*
X0247029Y0211691D01*
X0247000Y0211622D01*
X0247000Y0223994D01*
X0248443Y0222551D01*
X0251305Y0221366D01*
X0263772Y0221366D01*
X0266633Y0222551D01*
X0270008Y0228451D02*
X0278800Y0228451D01*
X0278800Y0233449D02*
X0268869Y0233449D01*
X0278800Y0238448D02*
X0247000Y0238448D01*
X0247000Y0243446D02*
X0247233Y0243446D01*
X0247000Y0258442D02*
X0278800Y0258442D01*
X0278800Y0253443D02*
X0268625Y0253443D01*
X0270008Y0248445D02*
X0278800Y0248445D01*
X0278800Y0243446D02*
X0267844Y0243446D01*
X0288200Y0243446D02*
X0290461Y0243446D01*
X0290758Y0242730D02*
X0292544Y0240943D01*
X0294878Y0239977D01*
X0297404Y0239977D01*
X0299738Y0240943D01*
X0301524Y0242730D01*
X0302491Y0245064D01*
X0302491Y0247590D01*
X0301524Y0249924D01*
X0300378Y0251070D01*
X0300601Y0251241D01*
X0301227Y0251867D01*
X0301766Y0252569D01*
X0302208Y0253335D01*
X0302547Y0254152D01*
X0302549Y0254160D01*
X0302588Y0254144D01*
X0303486Y0253756D01*
X0303524Y0253756D01*
X0303559Y0253741D01*
X0304537Y0253741D01*
X0327451Y0253414D01*
X0327486Y0253400D01*
X0328463Y0253400D01*
X0329442Y0253386D01*
X0329477Y0253400D01*
X0329514Y0253400D01*
X0330418Y0253774D01*
X0331327Y0254136D01*
X0331354Y0254162D01*
X0331389Y0254176D01*
X0332081Y0254868D01*
X0332782Y0255550D01*
X0332797Y0255584D01*
X0332824Y0255611D01*
X0333198Y0256515D01*
X0333585Y0257413D01*
X0333586Y0257451D01*
X0333600Y0257486D01*
X0333600Y0258400D01*
X0342559Y0258400D01*
X0342627Y0258374D01*
X0343571Y0258400D01*
X0343918Y0258400D01*
X0343918Y0256673D01*
X0344884Y0254339D01*
X0346671Y0252552D01*
X0349005Y0251586D01*
X0351531Y0251586D01*
X0353865Y0252552D01*
X0355011Y0253698D01*
X0355182Y0253476D01*
X0355808Y0252850D01*
X0356510Y0252311D01*
X0357276Y0251869D01*
X0358093Y0251530D01*
X0358948Y0251301D01*
X0359825Y0251186D01*
X0360268Y0251186D01*
X0360710Y0251186D01*
X0361587Y0251301D01*
X0362442Y0251530D01*
X0363260Y0251869D01*
X0364026Y0252311D01*
X0364728Y0252850D01*
X0365353Y0253476D01*
X0365892Y0254177D01*
X0366335Y0254944D01*
X0366673Y0255761D01*
X0366902Y0256616D01*
X0367018Y0257493D01*
X0367018Y0257936D01*
X0367018Y0258378D01*
X0366902Y0259255D01*
X0366673Y0260110D01*
X0366536Y0260442D01*
X0369702Y0260423D01*
X0369468Y0260188D01*
X0368903Y0259412D01*
X0368467Y0258556D01*
X0368171Y0257643D01*
X0368020Y0256695D01*
X0368020Y0256215D01*
X0374120Y0256215D01*
X0374120Y0256215D01*
X0368020Y0256215D01*
X0368020Y0255735D01*
X0368171Y0254786D01*
X0368467Y0253873D01*
X0368903Y0253017D01*
X0369468Y0252241D01*
X0370147Y0251562D01*
X0370876Y0251032D01*
X0369288Y0249443D01*
X0368420Y0247348D01*
X0368420Y0245081D01*
X0369288Y0242986D01*
X0370892Y0241382D01*
X0372987Y0240515D01*
X0373187Y0240515D01*
X0372851Y0239702D01*
X0372851Y0236997D01*
X0372932Y0236800D01*
X0372366Y0236800D01*
X0370271Y0235932D01*
X0368668Y0234329D01*
X0368500Y0233924D01*
X0368332Y0234329D01*
X0366729Y0235932D01*
X0364634Y0236800D01*
X0362366Y0236800D01*
X0360271Y0235932D01*
X0358683Y0234344D01*
X0358153Y0235074D01*
X0357474Y0235753D01*
X0356697Y0236317D01*
X0356261Y0236539D01*
X0356451Y0236997D01*
X0356451Y0239702D01*
X0355415Y0242201D01*
X0353503Y0244114D01*
X0351003Y0245149D01*
X0348298Y0245149D01*
X0345799Y0244114D01*
X0343886Y0242201D01*
X0342851Y0239702D01*
X0342851Y0236997D01*
X0342932Y0236800D01*
X0342366Y0236800D01*
X0340271Y0235932D01*
X0338668Y0234329D01*
X0338500Y0233924D01*
X0338332Y0234329D01*
X0336729Y0235932D01*
X0334634Y0236800D01*
X0332366Y0236800D01*
X0330271Y0235932D01*
X0328668Y0234329D01*
X0328500Y0233924D01*
X0328332Y0234329D01*
X0326729Y0235932D01*
X0324634Y0236800D01*
X0322366Y0236800D01*
X0320271Y0235932D01*
X0318668Y0234329D01*
X0318500Y0233924D01*
X0318332Y0234329D01*
X0316729Y0235932D01*
X0314634Y0236800D01*
X0312366Y0236800D01*
X0310271Y0235932D01*
X0308668Y0234329D01*
X0308500Y0233924D01*
X0308332Y0234329D01*
X0306729Y0235932D01*
X0304634Y0236800D01*
X0302366Y0236800D01*
X0300271Y0235932D01*
X0298668Y0234329D01*
X0298500Y0233924D01*
X0298332Y0234329D01*
X0296729Y0235932D01*
X0294634Y0236800D01*
X0292366Y0236800D01*
X0290271Y0235932D01*
X0288668Y0234329D01*
X0288200Y0233199D01*
X0288200Y0264435D01*
X0287484Y0266162D01*
X0286162Y0267484D01*
X0284435Y0268200D01*
X0282565Y0268200D01*
X0282180Y0268200D01*
X0283500Y0269520D01*
X0284903Y0268117D01*
X0287237Y0267150D01*
X0289763Y0267150D01*
X0292097Y0268117D01*
X0293883Y0269903D01*
X0294850Y0272237D01*
X0294850Y0274763D01*
X0293883Y0277097D01*
X0293313Y0277667D01*
X0293736Y0277492D01*
X0298531Y0277492D01*
X0299473Y0277882D01*
X0299473Y0262197D01*
X0299133Y0262394D01*
X0298315Y0262732D01*
X0297461Y0262961D01*
X0296584Y0263077D01*
X0296141Y0263077D01*
X0295699Y0263077D01*
X0294821Y0262961D01*
X0293967Y0262732D01*
X0293149Y0262394D01*
X0292383Y0261951D01*
X0291681Y0261413D01*
X0291055Y0260787D01*
X0290517Y0260085D01*
X0290074Y0259319D01*
X0289736Y0258501D01*
X0289507Y0257646D01*
X0289391Y0256769D01*
X0289391Y0256327D01*
X0296141Y0256327D01*
X0296141Y0263077D01*
X0296141Y0256327D01*
X0296141Y0256327D01*
X0296141Y0256327D01*
X0289391Y0256327D01*
X0289391Y0255884D01*
X0289507Y0255007D01*
X0289736Y0254152D01*
X0290074Y0253335D01*
X0290517Y0252569D01*
X0291055Y0251867D01*
X0291681Y0251241D01*
X0291904Y0251070D01*
X0290758Y0249924D01*
X0289791Y0247590D01*
X0289791Y0245064D01*
X0290758Y0242730D01*
X0288200Y0238448D02*
X0342851Y0238448D01*
X0345131Y0243446D02*
X0339538Y0243446D01*
X0339502Y0243359D02*
X0340336Y0245373D01*
X0340336Y0247552D01*
X0339502Y0249566D01*
X0337961Y0251106D01*
X0335948Y0251940D01*
X0333768Y0251940D01*
X0331755Y0251106D01*
X0330214Y0249566D01*
X0330055Y0249181D01*
X0329896Y0249566D01*
X0328355Y0251106D01*
X0326341Y0251940D01*
X0324162Y0251940D01*
X0322149Y0251106D01*
X0320608Y0249566D01*
X0320555Y0249438D01*
X0320502Y0249566D01*
X0318961Y0251106D01*
X0316948Y0251940D01*
X0314768Y0251940D01*
X0312755Y0251106D01*
X0311214Y0249566D01*
X0310380Y0247552D01*
X0310380Y0245373D01*
X0311214Y0243359D01*
X0312755Y0241819D01*
X0314768Y0240985D01*
X0316948Y0240985D01*
X0318961Y0241819D01*
X0320502Y0243359D01*
X0320555Y0243487D01*
X0320608Y0243359D01*
X0322149Y0241819D01*
X0324162Y0240985D01*
X0326341Y0240985D01*
X0328355Y0241819D01*
X0329896Y0243359D01*
X0330055Y0243744D01*
X0330214Y0243359D01*
X0331755Y0241819D01*
X0333768Y0240985D01*
X0335948Y0240985D01*
X0337961Y0241819D01*
X0339502Y0243359D01*
X0339966Y0248445D02*
X0368875Y0248445D01*
X0368686Y0253443D02*
X0365321Y0253443D01*
X0367018Y0257936D02*
X0360268Y0257936D01*
X0367018Y0257936D01*
X0367009Y0258442D02*
X0368430Y0258442D01*
X0360268Y0257936D02*
X0360268Y0257936D01*
X0360268Y0251186D01*
X0360268Y0257936D01*
X0360268Y0257936D01*
X0360268Y0253443D02*
X0360268Y0253443D01*
X0355214Y0253443D02*
X0354756Y0253443D01*
X0345780Y0253443D02*
X0329619Y0253443D01*
X0325421Y0253443D02*
X0302253Y0253443D01*
X0302137Y0248445D02*
X0310750Y0248445D01*
X0311178Y0243446D02*
X0301821Y0243446D01*
X0290145Y0248445D02*
X0288200Y0248445D01*
X0288200Y0253443D02*
X0290029Y0253443D01*
X0289720Y0258442D02*
X0288200Y0258442D01*
X0288200Y0263440D02*
X0299473Y0263440D01*
X0296141Y0258442D02*
X0296141Y0258442D01*
X0299473Y0268439D02*
X0292419Y0268439D01*
X0294850Y0273437D02*
X0299473Y0273437D01*
X0309673Y0264085D02*
X0309794Y0264035D01*
X0312499Y0264035D01*
X0314999Y0265070D01*
X0316542Y0266614D01*
X0317114Y0266850D01*
X0318436Y0268173D01*
X0319151Y0269900D01*
X0319151Y0277407D01*
X0320151Y0278407D01*
X0320151Y0280068D01*
X0321935Y0280068D01*
X0323065Y0279288D01*
X0323065Y0278952D01*
X0324101Y0276452D01*
X0326014Y0274539D01*
X0328513Y0273504D01*
X0331218Y0273504D01*
X0333717Y0274539D01*
X0335630Y0276452D01*
X0336447Y0278424D01*
X0336447Y0275751D01*
X0335382Y0274687D01*
X0334347Y0272187D01*
X0334347Y0269482D01*
X0334712Y0268600D01*
X0327486Y0268600D01*
X0325611Y0267824D01*
X0324176Y0266389D01*
X0323400Y0264514D01*
X0323400Y0263673D01*
X0309673Y0263869D01*
X0309673Y0264085D01*
X0318546Y0268439D02*
X0327097Y0268439D01*
X0334865Y0273437D02*
X0319151Y0273437D01*
X0320151Y0278436D02*
X0323279Y0278436D01*
X0328373Y0287046D02*
X0327651Y0287544D01*
X0327651Y0288129D01*
X0324312Y0291468D01*
X0320151Y0291468D01*
X0320151Y0293129D01*
X0316812Y0296468D01*
X0312090Y0296468D01*
X0309673Y0294051D01*
X0309673Y0297801D01*
X0314736Y0297679D01*
X0315113Y0297301D01*
X0317447Y0296334D01*
X0319974Y0296334D01*
X0322307Y0297301D01*
X0323454Y0298447D01*
X0323625Y0298224D01*
X0324250Y0297598D01*
X0324952Y0297060D01*
X0325719Y0296617D01*
X0326536Y0296279D01*
X0327391Y0296050D01*
X0328268Y0295934D01*
X0328710Y0295934D01*
X0328710Y0302684D01*
X0328711Y0302684D01*
X0328711Y0295934D01*
X0329153Y0295934D01*
X0330030Y0296050D01*
X0330885Y0296279D01*
X0331702Y0296617D01*
X0332469Y0297060D01*
X0333171Y0297598D01*
X0333796Y0298224D01*
X0334335Y0298926D01*
X0334714Y0299582D01*
X0335617Y0297403D01*
X0336763Y0296257D01*
X0336540Y0296086D01*
X0335914Y0295460D01*
X0335376Y0294758D01*
X0334933Y0293992D01*
X0334595Y0293174D01*
X0334365Y0292320D01*
X0334250Y0291442D01*
X0334250Y0291000D01*
X0341000Y0291000D01*
X0341000Y0291000D01*
X0334250Y0291000D01*
X0334250Y0290558D01*
X0334365Y0289680D01*
X0334595Y0288826D01*
X0334933Y0288008D01*
X0335376Y0287242D01*
X0335914Y0286540D01*
X0336540Y0285914D01*
X0336934Y0285612D01*
X0336447Y0284435D01*
X0336447Y0282185D01*
X0335630Y0284156D01*
X0333717Y0286069D01*
X0331218Y0287104D01*
X0328513Y0287104D01*
X0328373Y0287046D01*
X0327347Y0288433D02*
X0334757Y0288433D01*
X0334701Y0293432D02*
X0319849Y0293432D01*
X0323437Y0298430D02*
X0323467Y0298430D01*
X0328710Y0298430D02*
X0328711Y0298430D01*
X0333954Y0298430D02*
X0335191Y0298430D01*
X0352381Y0303200D02*
X0353159Y0303978D01*
X0353631Y0305117D01*
X0353631Y0309912D01*
X0353159Y0311052D01*
X0352287Y0311924D01*
X0351147Y0312396D01*
X0347600Y0312396D01*
X0347600Y0314813D01*
X0346595Y0317239D01*
X0345437Y0318397D01*
X0345460Y0318414D01*
X0346086Y0319040D01*
X0346624Y0319742D01*
X0347067Y0320508D01*
X0347405Y0321326D01*
X0347634Y0322180D01*
X0347750Y0323058D01*
X0347750Y0323500D01*
X0347750Y0323942D01*
X0347634Y0324820D01*
X0347405Y0325674D01*
X0347067Y0326492D01*
X0346624Y0327258D01*
X0346086Y0327960D01*
X0345460Y0328586D01*
X0344992Y0328945D01*
X0347532Y0329614D01*
X0349023Y0328754D01*
X0351973Y0327963D01*
X0353934Y0327963D01*
X0353934Y0321798D01*
X0354802Y0319703D01*
X0356405Y0318099D01*
X0358500Y0317231D01*
X0360768Y0317231D01*
X0362863Y0318099D01*
X0364466Y0319703D01*
X0364634Y0320108D01*
X0364802Y0319703D01*
X0366405Y0318099D01*
X0368500Y0317231D01*
X0370768Y0317231D01*
X0372863Y0318099D01*
X0374466Y0319703D01*
X0374634Y0320108D01*
X0374802Y0319703D01*
X0374934Y0319570D01*
X0374934Y0303200D01*
X0352381Y0303200D01*
X0352610Y0303429D02*
X0374934Y0303429D01*
X0374934Y0308427D02*
X0353631Y0308427D01*
X0347600Y0313426D02*
X0374934Y0313426D01*
X0374934Y0318424D02*
X0373188Y0318424D01*
X0366080Y0318424D02*
X0363188Y0318424D01*
X0356080Y0318424D02*
X0345470Y0318424D01*
X0347750Y0323423D02*
X0353934Y0323423D01*
X0347750Y0323500D02*
X0341000Y0323500D01*
X0347750Y0323500D01*
X0341000Y0323500D02*
X0341000Y0323500D01*
X0341000Y0323500D01*
X0334250Y0323500D01*
X0334250Y0323942D01*
X0334365Y0324820D01*
X0334595Y0325674D01*
X0334841Y0326270D01*
X0328400Y0324573D01*
X0328400Y0320070D01*
X0335186Y0320070D01*
X0334933Y0320508D01*
X0334595Y0321326D01*
X0334365Y0322180D01*
X0334250Y0323058D01*
X0334250Y0323500D01*
X0341000Y0323500D01*
X0334250Y0323423D02*
X0328400Y0323423D01*
X0312919Y0336210D02*
X0306819Y0336210D01*
X0312919Y0336210D01*
X0312919Y0336210D01*
X0306819Y0336210D02*
X0306819Y0338737D01*
X0307732Y0339650D01*
X0307237Y0339650D01*
X0304903Y0340617D01*
X0304128Y0341392D01*
X0303485Y0339840D01*
X0301628Y0337984D01*
X0299363Y0337045D01*
X0300145Y0336836D01*
X0300992Y0336484D01*
X0301787Y0336026D01*
X0302515Y0335467D01*
X0303164Y0334818D01*
X0303723Y0334090D01*
X0304181Y0333296D01*
X0304258Y0333110D01*
X0305558Y0334410D01*
X0306819Y0334410D01*
X0306819Y0336210D01*
X0306819Y0338418D02*
X0302063Y0338418D01*
X0304110Y0333420D02*
X0304568Y0333420D01*
X0296417Y0337045D02*
X0295635Y0336836D01*
X0294787Y0336484D01*
X0293992Y0336026D01*
X0293264Y0335467D01*
X0292616Y0334818D01*
X0292057Y0334090D01*
X0291598Y0333296D01*
X0291310Y0332601D01*
X0290843Y0333069D01*
X0288116Y0334643D01*
X0285074Y0335458D01*
X0284442Y0335458D01*
X0284490Y0335573D01*
X0284490Y0338199D01*
X0283485Y0340624D01*
X0281628Y0342481D01*
X0279203Y0343486D01*
X0276577Y0343486D01*
X0275900Y0343205D01*
X0275900Y0343952D01*
X0276577Y0343672D01*
X0279203Y0343672D01*
X0281628Y0344676D01*
X0282524Y0345572D01*
X0291571Y0345572D01*
X0291290Y0344892D01*
X0291290Y0342266D01*
X0292295Y0339840D01*
X0294151Y0337984D01*
X0296417Y0337045D01*
X0293717Y0338418D02*
X0284399Y0338418D01*
X0279370Y0343417D02*
X0291290Y0343417D01*
X0291670Y0333420D02*
X0290235Y0333420D01*
X0276410Y0343417D02*
X0275900Y0343417D01*
X0261100Y0343417D02*
X0247000Y0343417D01*
X0247000Y0348415D02*
X0261100Y0348415D01*
X0261100Y0353414D02*
X0247000Y0353414D01*
X0247000Y0358412D02*
X0261100Y0358412D01*
X0261100Y0338418D02*
X0247000Y0338418D01*
X0247000Y0333420D02*
X0261100Y0333420D01*
X0257533Y0328421D02*
X0247000Y0328421D01*
X0247000Y0323423D02*
X0256542Y0323423D01*
X0257622Y0318424D02*
X0247000Y0318424D01*
X0247000Y0313426D02*
X0262033Y0313426D01*
X0270890Y0310114D02*
X0277890Y0310114D01*
X0277890Y0310114D01*
X0284890Y0310114D01*
X0284890Y0309655D01*
X0284770Y0308746D01*
X0284532Y0307859D01*
X0284181Y0307012D01*
X0283723Y0306217D01*
X0283164Y0305489D01*
X0282515Y0304840D01*
X0281787Y0304281D01*
X0280992Y0303823D01*
X0280145Y0303471D01*
X0279363Y0303262D01*
X0281628Y0302324D01*
X0283485Y0300467D01*
X0283800Y0299706D01*
X0283800Y0304435D01*
X0284516Y0306162D01*
X0285838Y0307484D01*
X0287565Y0308200D01*
X0293335Y0308200D01*
X0294151Y0309016D01*
X0296577Y0310021D01*
X0299203Y0310021D01*
X0299386Y0309945D01*
X0299382Y0310281D01*
X0299203Y0310207D01*
X0296577Y0310207D01*
X0294151Y0311212D01*
X0292295Y0313068D01*
X0291617Y0314705D01*
X0290843Y0313931D01*
X0288116Y0312357D01*
X0285074Y0311542D01*
X0284754Y0311542D01*
X0284770Y0311483D01*
X0284890Y0310573D01*
X0284890Y0310114D01*
X0277890Y0310114D01*
X0270890Y0310114D01*
X0271095Y0308427D02*
X0247000Y0308427D01*
X0247000Y0303429D02*
X0275795Y0303429D01*
X0279985Y0303429D02*
X0283800Y0303429D01*
X0284685Y0308427D02*
X0293562Y0308427D01*
X0292147Y0313426D02*
X0289967Y0313426D01*
X0277890Y0310114D02*
X0277890Y0310114D01*
X0271451Y0298430D02*
X0247000Y0298430D01*
X0247000Y0293432D02*
X0272112Y0293432D01*
X0283668Y0293432D02*
X0283800Y0293432D01*
X0283800Y0288433D02*
X0247000Y0288433D01*
X0247000Y0283434D02*
X0283800Y0283434D01*
X0284456Y0278436D02*
X0282544Y0278436D01*
X0274456Y0278436D02*
X0247000Y0278436D01*
X0247000Y0273437D02*
X0272150Y0273437D01*
X0274581Y0268439D02*
X0247000Y0268439D01*
X0247000Y0263440D02*
X0263619Y0263440D01*
X0282419Y0268439D02*
X0284581Y0268439D01*
X0320538Y0243446D02*
X0320572Y0243446D01*
X0329932Y0243446D02*
X0330178Y0243446D01*
X0354170Y0243446D02*
X0369097Y0243446D01*
X0372851Y0238448D02*
X0356451Y0238448D01*
X0353500Y0228451D02*
X0353500Y0228451D01*
X0353500Y0223452D02*
X0353500Y0223452D01*
X0378200Y0208457D02*
X0436850Y0208457D01*
X0436850Y0213455D02*
X0288200Y0213455D01*
X0278800Y0213455D02*
X0258727Y0213455D01*
X0253500Y0213455D02*
X0253500Y0213455D01*
X0260700Y0208457D02*
X0276700Y0208457D01*
X0278925Y0203458D02*
X0258641Y0203458D01*
X0262052Y0198460D02*
X0287800Y0198460D01*
X0288340Y0193461D02*
X0263299Y0193461D01*
X0262020Y0188463D02*
X0423640Y0188463D01*
X0428693Y0203458D02*
X0436850Y0203458D01*
X0413354Y0243446D02*
X0408047Y0243446D01*
X0363500Y0198500D02*
X0363500Y0189800D01*
X0363500Y0198500D01*
X0363500Y0198500D01*
X0363500Y0198460D02*
X0363500Y0198460D01*
X0363500Y0193461D02*
X0363500Y0193461D01*
X0288307Y0203458D02*
X0288075Y0203458D01*
X0278800Y0218454D02*
X0247000Y0218454D01*
X0247000Y0223452D02*
X0247542Y0223452D01*
X0247000Y0213455D02*
X0248273Y0213455D01*
X0288200Y0233449D02*
X0288304Y0233449D01*
X0335929Y0283434D02*
X0336447Y0283434D01*
X0350790Y0279361D02*
X0351162Y0279516D01*
X0352484Y0280838D01*
X0353200Y0282565D01*
X0353200Y0293800D01*
X0353596Y0293800D01*
X0353534Y0293412D01*
X0353534Y0292932D01*
X0359634Y0292932D01*
X0359634Y0292931D01*
X0353534Y0292931D01*
X0353534Y0287251D01*
X0353684Y0286303D01*
X0353981Y0285390D01*
X0354417Y0284534D01*
X0354443Y0284498D01*
X0354101Y0284156D01*
X0353065Y0281657D01*
X0353065Y0278952D01*
X0353149Y0278750D01*
X0351673Y0279361D01*
X0350790Y0279361D01*
X0353200Y0283434D02*
X0353802Y0283434D01*
X0353534Y0288433D02*
X0353200Y0288433D01*
X0353200Y0293432D02*
X0353537Y0293432D01*
X0350263Y0328421D02*
X0345625Y0328421D01*
X0364534Y0343202D02*
X0364309Y0344040D01*
X0362782Y0346686D01*
X0360623Y0348845D01*
X0357977Y0350372D01*
X0355027Y0351163D01*
X0351973Y0351163D01*
X0349023Y0350372D01*
X0346781Y0349078D01*
X0346845Y0349361D01*
X0346996Y0350700D01*
X0346996Y0350924D01*
X0335446Y0350924D01*
X0335446Y0351824D01*
X0334546Y0351824D01*
X0334546Y0363374D01*
X0334322Y0363374D01*
X0332983Y0363223D01*
X0331669Y0362923D01*
X0330397Y0362478D01*
X0329182Y0361893D01*
X0328400Y0361402D01*
X0328400Y0369972D01*
X0327273Y0372692D01*
X0325192Y0374773D01*
X0324740Y0374961D01*
X0351165Y0374961D01*
X0350173Y0374734D01*
X0348901Y0374289D01*
X0347686Y0373704D01*
X0346545Y0372987D01*
X0345491Y0372147D01*
X0344538Y0371194D01*
X0343698Y0370140D01*
X0342981Y0368999D01*
X0342396Y0367784D01*
X0341951Y0366512D01*
X0341651Y0365198D01*
X0341500Y0363859D01*
X0341500Y0363635D01*
X0353050Y0363635D01*
X0353050Y0362735D01*
X0353950Y0362735D01*
X0353950Y0351185D01*
X0354174Y0351185D01*
X0355513Y0351336D01*
X0356827Y0351636D01*
X0358099Y0352081D01*
X0359314Y0352666D01*
X0360455Y0353383D01*
X0361509Y0354223D01*
X0362462Y0355176D01*
X0363302Y0356230D01*
X0364019Y0357371D01*
X0364604Y0358586D01*
X0365049Y0359858D01*
X0365349Y0361172D01*
X0365500Y0362511D01*
X0365500Y0362735D01*
X0353950Y0362735D01*
X0353950Y0363635D01*
X0365500Y0363635D01*
X0365500Y0363859D01*
X0365349Y0365198D01*
X0365049Y0366512D01*
X0364604Y0367784D01*
X0364019Y0368999D01*
X0363302Y0370140D01*
X0362462Y0371194D01*
X0361509Y0372147D01*
X0360455Y0372987D01*
X0359314Y0373704D01*
X0358099Y0374289D01*
X0356827Y0374734D01*
X0355835Y0374961D01*
X0436850Y0374961D01*
X0436850Y0344676D01*
X0435306Y0345316D01*
X0431408Y0345316D01*
X0427806Y0343824D01*
X0427224Y0343242D01*
X0427224Y0352505D01*
X0427309Y0353204D01*
X0427224Y0353511D01*
X0427224Y0353829D01*
X0426954Y0354480D01*
X0426921Y0354600D01*
X0429110Y0354600D01*
X0432638Y0356062D01*
X0435338Y0358762D01*
X0436800Y0362290D01*
X0436800Y0366110D01*
X0435338Y0369638D01*
X0432638Y0372338D01*
X0429110Y0373800D01*
X0425290Y0373800D01*
X0421762Y0372338D01*
X0419062Y0369638D01*
X0418542Y0368383D01*
X0418018Y0368600D01*
X0397486Y0368600D01*
X0395611Y0367824D01*
X0394176Y0366389D01*
X0393400Y0364514D01*
X0393400Y0358600D01*
X0387776Y0358600D01*
X0387938Y0358762D01*
X0389400Y0362290D01*
X0389400Y0366110D01*
X0387938Y0369638D01*
X0385238Y0372338D01*
X0381710Y0373800D01*
X0377890Y0373800D01*
X0374362Y0372338D01*
X0371662Y0369638D01*
X0370200Y0366110D01*
X0370200Y0362290D01*
X0371662Y0358762D01*
X0371824Y0358600D01*
X0368620Y0358600D01*
X0366745Y0357824D01*
X0365310Y0356389D01*
X0364534Y0354514D01*
X0364534Y0343202D01*
X0364534Y0343417D02*
X0364477Y0343417D01*
X0364534Y0348415D02*
X0361053Y0348415D01*
X0360494Y0353414D02*
X0364534Y0353414D01*
X0364520Y0358412D02*
X0368166Y0358412D01*
X0370200Y0363411D02*
X0353950Y0363411D01*
X0353050Y0363411D02*
X0328400Y0363411D01*
X0328400Y0368409D02*
X0342697Y0368409D01*
X0339595Y0362478D02*
X0338323Y0362923D01*
X0337009Y0363223D01*
X0335670Y0363374D01*
X0335446Y0363374D01*
X0335446Y0351824D01*
X0346996Y0351824D01*
X0346996Y0352048D01*
X0346869Y0353180D01*
X0347686Y0352666D01*
X0348901Y0352081D01*
X0350173Y0351636D01*
X0351487Y0351336D01*
X0352826Y0351185D01*
X0353050Y0351185D01*
X0353050Y0362735D01*
X0341500Y0362735D01*
X0341500Y0362511D01*
X0341628Y0361379D01*
X0340810Y0361893D01*
X0339595Y0362478D01*
X0335446Y0358412D02*
X0334546Y0358412D01*
X0334546Y0353414D02*
X0335446Y0353414D01*
X0353050Y0353414D02*
X0353950Y0353414D01*
X0353950Y0358412D02*
X0353050Y0358412D01*
X0364303Y0368409D02*
X0371153Y0368409D01*
X0376943Y0373408D02*
X0359786Y0373408D01*
X0347214Y0373408D02*
X0326557Y0373408D01*
X0374734Y0348400D02*
X0392770Y0348400D01*
X0392179Y0346973D01*
X0392179Y0344427D01*
X0393153Y0342075D01*
X0393479Y0341749D01*
X0393479Y0334200D01*
X0389766Y0334200D01*
X0387671Y0333332D01*
X0386068Y0331729D01*
X0385200Y0329634D01*
X0385200Y0329589D01*
X0384466Y0331360D01*
X0382863Y0332964D01*
X0380768Y0333831D01*
X0378500Y0333831D01*
X0376405Y0332964D01*
X0374802Y0331360D01*
X0374734Y0331197D01*
X0374734Y0348400D01*
X0374734Y0343417D02*
X0392597Y0343417D01*
X0393479Y0338418D02*
X0374734Y0338418D01*
X0374734Y0333420D02*
X0377506Y0333420D01*
X0381762Y0333420D02*
X0387882Y0333420D01*
X0399165Y0323400D02*
X0399593Y0323400D01*
X0401468Y0324176D01*
X0402902Y0325611D01*
X0403321Y0326623D01*
X0403321Y0307486D01*
X0404098Y0305611D01*
X0405532Y0304176D01*
X0407407Y0303400D01*
X0412003Y0303400D01*
X0411567Y0303220D01*
X0410647Y0302847D01*
X0410631Y0302832D01*
X0410611Y0302824D01*
X0409909Y0302121D01*
X0409201Y0301425D01*
X0409192Y0301404D01*
X0409176Y0301389D01*
X0408796Y0300471D01*
X0408497Y0299764D01*
X0408235Y0300395D01*
X0407892Y0301284D01*
X0407848Y0301330D01*
X0407824Y0301389D01*
X0407150Y0302063D01*
X0406492Y0302753D01*
X0406434Y0302779D01*
X0406389Y0302824D01*
X0405508Y0303188D01*
X0404636Y0303574D01*
X0404573Y0303576D01*
X0404514Y0303600D01*
X0403561Y0303600D01*
X0402608Y0303623D01*
X0402549Y0303600D01*
X0399165Y0303600D01*
X0399329Y0303668D01*
X0400932Y0305271D01*
X0401800Y0307366D01*
X0401800Y0309634D01*
X0400932Y0311729D01*
X0399329Y0313332D01*
X0398924Y0313500D01*
X0399329Y0313668D01*
X0400932Y0315271D01*
X0401800Y0317366D01*
X0401800Y0319634D01*
X0400932Y0321729D01*
X0399329Y0323332D01*
X0399165Y0323400D01*
X0399648Y0323423D02*
X0403321Y0323423D01*
X0403321Y0318424D02*
X0401800Y0318424D01*
X0403321Y0313426D02*
X0399103Y0313426D01*
X0401800Y0308427D02*
X0403321Y0308427D01*
X0404966Y0303429D02*
X0407338Y0303429D01*
X0427224Y0343417D02*
X0427399Y0343417D01*
X0427224Y0348415D02*
X0436850Y0348415D01*
X0436850Y0353414D02*
X0427251Y0353414D01*
X0434989Y0358412D02*
X0436850Y0358412D01*
X0436800Y0363411D02*
X0436850Y0363411D01*
X0436850Y0368409D02*
X0435847Y0368409D01*
X0436850Y0373408D02*
X0430057Y0373408D01*
X0424343Y0373408D02*
X0382657Y0373408D01*
X0388447Y0368409D02*
X0397025Y0368409D01*
X0393400Y0363411D02*
X0389400Y0363411D01*
X0418479Y0368409D02*
X0418553Y0368409D01*
D24*
X0400672Y0369884D03*
X0383571Y0336962D03*
X0362223Y0352176D03*
X0332223Y0372176D03*
X0289492Y0337193D03*
X0288975Y0310040D03*
X0309566Y0285787D03*
X0296133Y0282373D03*
X0322925Y0264290D03*
X0328040Y0290085D03*
X0335415Y0307515D03*
X0348750Y0307515D03*
X0408541Y0303032D03*
X0396992Y0258879D03*
X0386629Y0249123D03*
X0402603Y0212186D03*
X0323773Y0216304D03*
X0277909Y0215773D03*
X0268500Y0263500D03*
D25*
X0304573Y0258841D02*
X0328500Y0258500D01*
X0328500Y0263500D01*
X0343500Y0263500D01*
X0347427Y0265256D01*
X0304573Y0258841D02*
X0304573Y0303026D01*
X0318710Y0302684D01*
X0304573Y0303026D02*
X0304402Y0316636D01*
X0297890Y0316807D01*
X0369634Y0322931D02*
X0369634Y0353500D01*
X0398579Y0353500D01*
X0398500Y0353500D01*
X0398500Y0363500D01*
X0417004Y0363500D01*
X0417004Y0359358D01*
X0422124Y0352815D01*
X0422124Y0328500D01*
X0423500Y0328500D01*
X0433500Y0323500D01*
X0433500Y0258500D01*
X0423500Y0258500D01*
X0423159Y0257366D01*
X0413159Y0257366D02*
X0413500Y0298500D01*
X0423500Y0298500D01*
X0423500Y0308500D02*
X0408421Y0308500D01*
X0408421Y0345700D01*
X0408421Y0353500D02*
X0415085Y0353500D01*
X0415085Y0329320D01*
X0414880Y0329320D01*
X0414880Y0318047D01*
X0423500Y0318047D01*
X0423500Y0318500D01*
X0403500Y0298500D02*
X0393500Y0298500D01*
X0403500Y0298500D02*
X0402271Y0247270D01*
X0398579Y0328500D02*
X0393500Y0328500D01*
X0398579Y0328500D02*
X0398579Y0345700D01*
D26*
X0321000Y0331000D02*
X0321000Y0318500D01*
X0321000Y0331000D02*
X0321000Y0368500D01*
X0268500Y0368500D01*
X0268500Y0323500D01*
D27*
X0321000Y0331000D02*
X0323954Y0331778D01*
X0353500Y0339563D01*
D28*
X0283500Y0323500D02*
X0277890Y0323500D01*
X0268500Y0323500D01*
D29*
X0321000Y0318500D02*
X0321408Y0318500D01*
X0321408Y0313470D01*
X0341000Y0313470D01*
X0341000Y0313500D01*
M02*
